<mxfile host="Electron" modified="2024-05-05T12:28:35.064Z" agent="Mozilla/5.0 (X11; Linux x86_64) AppleWebKit/537.36 (KHTML, like Gecko) draw.io/24.2.5 Chrome/120.0.6099.109 Electron/28.1.0 Safari/537.36" etag="08Wu1sIHCCbdRjLo9qNz" version="24.2.5" type="device">
  <diagram name="Page-1" id="fvPsQZGbzf2I7vKeBOOl">
    <mxGraphModel dx="1483" dy="1008" grid="1" gridSize="10" guides="1" tooltips="1" connect="1" arrows="1" fold="1" page="1" pageScale="1" pageWidth="4681" pageHeight="3300" math="0" shadow="0">
      <root>
        <mxCell id="0" />
        <mxCell id="1" parent="0" />
        <mxCell id="jLQ3n-HPN2SgbX0vu5e_-2" value="" style="shape=image;aspect=fixed;image=data:image/jpg,/9j/4QAWRXhpZgAATU0AKgAAAAgAAAAAAAD/4gHYSUNDX1BST0ZJTEUAAQEAAAHIAAAAAAQwAABtbnRyUkdCIFhZWiAH4AABAAEAAAAAAABhY3NwAAAAAAAAAAAAAAAAAAAAAAAAAAAAAAAAAAAAAQAA9tYAAQAAAADTLQAAAAAAAAAAAAAAAAAAAAAAAAAAAAAAAAAAAAAAAAAAAAAAAAAAAAAAAAAAAAAAAAAAAAlkZXNjAAAA8AAAACRyWFlaAAABFAAAABRnWFlaAAABKAAAABRiWFlaAAABPAAAABR3dHB0AAABUAAAABRyVFJDAAABZAAAAChnVFJDAAABZAAAAChiVFJDAAABZAAAAChjcHJ0AAABjAAAADxtbHVjAAAAAAAAAAEAAAAMZW5VUwAAAAgAAAAcAHMAUgBHAEJYWVogAAAAAAAAb6IAADj1AAADkFhZWiAAAAAAAABimQAAt4UAABjaWFlaIAAAAAAAACSgAAAPhAAAts9YWVogAAAAAAAA9tYAAQAAAADTLXBhcmEAAAAAAAQAAAACZmYAAPKnAAANWQAAE9AAAApbAAAAAAAAAABtbHVjAAAAAAAAAAEAAAAMZW5VUwAAACAAAAAcAEcAbwBvAGcAbABlACAASQBuAGMALgAgADIAMAAxADb/2wBDABsSFBcUERsXFhceHBsgKEIrKCUlKFE6PTBCYFVlZF9VXVtqeJmBanGQc1tdhbWGkJ6jq62rZ4C8ybqmx5moq6T/2wBDARweHigjKE4rK06kbl1upKSkpKSkpKSkpKSkpKSkpKSkpKSkpKSkpKSkpKSkpKSkpKSkpKSkpKSkpKSkpKSkpKT/wAARCANjBIQDASIAAhEBAxEB/8QAGgAAAgMBAQAAAAAAAAAAAAAAAAECAwQFBv/EAEcQAAIBAgQDBQYDBgUEAgEDBQABAgMRBBIhMRNBURRSYXGRBSIyU4GhFUKxI2KSwdHwJDNDcuFUY4LxNKIWBkSjsoOTwtL/xAAZAQEBAQEBAQAAAAAAAAAAAAAAAQIDBAX/xAAlEQEAAgICAgMBAQADAQAAAAAAARECEgMhEzEiMlFhQQQzgUL/2gAMAwEAAhEDEQA/AOOoak1EBpo9FIaiTSViGYM2hUTTQ7pMqchZhYtchOSKnLUVxYschZiu47kVfRqZZXOlTqZo7nGUtTfhat0kYygbLibI3C5gO4XI3C4DEIAGSirsii+lAC2lDqWiSshlCK6krE5uyM05XYCbIyBsi2RSZEbYgEOwAAAAAAxAAwEMCSRJERoBiBsVwG2K4AADQiQEkO5FBcCVx2IE0Bg9pv3Ir9455u9qS1gvEwkkAAAAMQAMBDAAEMAEAAAAAAAAAAAAIAAAAAAAAAAAEAAAAAAAAIYAIAAAAAAAAAAAAAAAAAAAAAAAAAAAAAABDAQDABDEMBAAAAAMBAMQAAAAAAAAAAAAAAAAAAAAAIYAIBiAYgAgAGIoCL3RIjLdASQAAAABsBfhsPKu3ZpJFdSDhUcXumEKk6bbhJxZFtt3bu3uAgAAAAAAAAANQEBBfcLibEehEriuIVwJXC5ELgO4XIthcgkFxAA7ltCplZTcIuzJI69OalEncx4epokarnOQwEFwHcCNxx1YFtON2bIRsimhDRM0pFCFJ2G3ZFNSYEak2UthKVyLZFAmxNiYAAgAYAAAAAAhjAABAMATC4gAdxXEAEkNEUSQANCGgGACCJIkiIPYK53tJ3qwXgzIaMe/2/0M5AAAAAAAAAAAAAAAAAAAAAAAgGIYgAAAAAAABAAAAAAAAAAAAAAAACAAAAAAAAAAAAAAAAAAAAAAAAAAAATs01ugG1ZiBtt3eoAAAIAAAABiAAAAAAAAAAAAAAAAAAAAAAAAAAAAAAAAAQwEAAAAAABF7okRlugJIAWwEAAAAAAFAAAAAAAAAACsAwAmAgZ2Q2xXEAAMQwEMAAAAAGK4rgBfQm07HQpyzROVB2dzVRq23MSNjYnIrzXAyJ5i6jHM0UQV2b8PCyuBfTWVE7iRGcrFEakzPOVyVSRS2QDIjEwpADEAAAwhDAVwGAhgMEAwoQMAAQDsFgIjBoAGhkR3AdhoSJIAsNIaRJBCsD2JWFJWTA4+O/8AkvyRQW4t3xM/oUkUwEADAQwAAEAwAAAAAAABAMQAAAAAAAAAACAAAAAAAAAAAAAAEAxAAAAAAAAAAAAAAAAAAAAAAAAAAAAAAAAAIAAAAAAAAAAAAAAAAAAAAAAAAAAAAAAAAAABDAAAAAAAQDEAAAABAEWtUSFJ6ooaAEAAMQEAAAAAAFAAAAAAAAAAEriYCudkFxiGQACDYCQhXE2LEuQriCxLEriuAWJYC2lLUqJQdmB0Iu6JIooy0NEFdmRdQhdo6NONkZ8NDS5q5FCk7FM5EqktSiUmyCM5EGwYgoAQADEAAAAMIQDEAEhDChDAAGACAYCC4AAAAAMABInYjEkBJDRBE1cCRXVl7rJspq7MqOPXd6834kCVT/Mn/uZEyoBgAAMQAADEAAAAAAAAAAAAAAAAAAIYgAAAAAAAAAAAAAAEMQAAAAAAAAAAAAAAAAAAAAAAAAAAAAAAAAgAYgAAAAAAAAAAAAAAAAAAAAAAAAAAAAAAAAAAAAAAAAABAAAAAAAAAQCIy3RK5GW6KJIAAgAAAAAAAAAKAAEAwAAC4CABiG36iOloAuIYsADQEDsJoYMBDEMAEMQDAQEF9KWp0MMs1jmUtZHZwMNEFbaUbRHOVkPZFM5XCISkVtkpMiyKixMYARCwwAjYdh2ABAAAAAADGRJIBoBAANiuMiAwEMIYCGFMYkiSQDSHYaJJBEUiSQ7DAiyqr8Ja2UVpe6Bxm7yk/FiEMigAAAAAAAAAAAAAAAAAAAAAAAABAAAAAAAAAAAAAAAAAAgAAAAAAAAAAAAAAAAAAAAAAAAAAAAAAEADEAAAAAAAAAAAAAAAAAAAAAAAAAAAAAAAEAAAAAAFAIYAAgAAAAAAACAAAACMt0SIy3RQ0MQwAAAgAAAAAAAAAAAACgsAgIAAA6IACwyAQ2AFAAgAYhiIGArgAAA4q7Avw0M0kd3CwywTOfgaN+R1o+7FIKU3ZFEmTnK7KpMiEyIxBQIAAAAAAQxAAhgAgGIBoYkMAAAATEFwAEMEMIQ0IkgqSQ0hRJgCJILDSCGhNjITYEZPQzYl+4/IubdyjFaUJvwCuUthiGQACGAAAAAAAAAAAAIAGAAAAAgAAAAAAAAAAAAAAAAABAAAAAAAAAAAAAAAAAAAAAAAAgAYCABiAAAAAAAAAAAAAAAAAAAAAAAAAAAAAAAAAAAAAAIABDAAAChAAAAAAAAAQAAAAAAUBGXIkRe4EgACAAA0AAAAAAAAAAAAAAAAAAAANoAQAUMVwYiBgAAAAAAAhgBbRjeSKi/DL30B2sFC0EzRJlWG0ponN6BVbZWyUmQIABAAxDEAxMBAIaAaAAGIBCJCCBBcBBTExiYQgAAHcZEaCnckiNiSAnEmitEkETTGQGmwJt2KpSuE5EEAzNjnahPyNJl9oO1CX0/UK5gABADEADAQAAxAAxAAAAAAAAAAAAAAAAAAAAAAAIAAAAAAAAAAAAAAAAAAAAAAAAQAMQEAAAAAAFAAAAAAAAAAAAAAAAAAAAAAAAAAAAAAAAgAYgAgYCABiAAAAAAAAKAAAAAAIAAAoAACAIy3RIjLdFEgEMgAAAAAAoAAAAAAgAAAAAAoYic4uEnGSs1yImkIYhgJiGJgAAAAMQAMBXABl2HfvooRdQ0mgrvYZ/s0ObKsLL3CUnqBFsQAQIAAIGAhhQIYgGh2BIYCCwwAQDACIDaEEITGxBQAxAFhpAO4DQyNySYE0AguEMfIRGTATeoIVwugqRj9ov8AY26tGq5i9ov3Ir94DCAAQAAAAAAAAAAAAAAAAAAAAAAAAACAYCGAgAAAAAAAAAAAAAAAAAAAAAQAMQAAAAAAAAAAAAAAAAAAAAAAAAAAAAAAAAAAAAAAAAAIAAAAAAYgAAAAIAAAoAACAAAKAAAAAAAAAAAAAgCMt0SIy3RQxiGAAAEAAAUAAAAAAAAAAACuuoAeh9pezlVTnBWkvucKcJQk4yVmup7SUVJWZyvaPs9VU5R0l1KPPATqQlCTjJWaK2VAAAACGJhQAAEAAAUFlN+8VllJe8gOxhH7hcyjCfAXNhEWAMRACYxAAAIBjQgAmgIjCncBDQBYdgAICLGJhUQGKwQDsIaCk0ImJoIVxpkRoCdxogiSCpNlcnqSbIMAEMQBcxe0H8C8TYYcc7zj9QMwCAgYAAAAAAAAAAAAAAAAAAgAAAAAAAAAAAAAAAAAAAAAAAAAAAQAAAAAAAAAAAAAAAAAAAAABAAAFAAAAAAAAAAAAAAAIAAAAAGIAAAAAAAAAAAAAAAAAIAAAAAAKAAAAAAAAAAAAAAIy3QxS5AMYkMAAAAAAQAMBAMBAAwAAEAwIPckZRUkSAo5PtHAKtFyirSWzPP1KcqcnGSs0e0lHMjme0fZ8a0W1pJbMo83zAsq0pU5OM1ZogyhIGgEAAABACAEFMsp7lZKD1QHYwr90tZmwb0saWERYhsRACGIAABASQCQBTC4mAErjRG40wJAwuAQgCwJBRYB2EAgQDAYmIVwgsNAhhSGAMCLYAACESACNjBjf81LwOlbQ5mN/wA/yQGcAAgAAAABiABiAAAAAYgAAAAAAAAAAAAAAAAAAAAAAAAABDEAxAAAAAAAAAAAAAAAAAAAAAAAAAAAAAACGAAIYAAhgAgGACAAAAAAAAAAAAAAAAAAAAAAAAAAAAIAAAoAAAAAAAAAAAEMAIy5EiMt0QNAAAAxAUAAMBAMQAADAQxAAwAAPcgAABGUbokAHL9o4CNaLaVpLZnnq1KVKbhNWaPaSimjm+0cBGvF6WlyZR5kCytRlRm4zVmisqEAwAQAAUxw+IiOG4HUwRrZjwb2NjCIsiSZFkAAgAYhiAaAQAAAAUDQgQRNMaIXJJgSGIYAIYgpCuDYgGITY1qBJDIjQDIslciwEAhgMEBKICa0OTjH/iJeSOtOyRx8S74ifmJFYABAAAAAAAAAAAAAAAAAAAAAAAAAAAAAAAAAAAAAAACAAAAAAAAAAAAAAAAAAAAAAAAAAABDAAABAADEADEAAMQAAxAAAAAAAAAAAAAAAAAAAAAAAAAAAAEAAAAAAFAAAAAAAAgABgIAGRe6GKXIgaABgAhiKAYgAYhiABiGAgAYAAAB7kAAAAAKAUopoYAc32hgI14PS0uTPOV6M6NRwmrP9T2kopo5/tDAxrwelnyYHlgLq9GVCbjNWaKmVCAGAUEosiNbgdDBv0N7ObhHqdJbIIiyLJMiyBAAAAAAAAAAAIAGAhgA0IAJXJXIDQEgQIdgpNEbE7CYRBjQDQASEF7AJsTYAFIdxBcB3GmQGEE5OxyazvWn5nUm9Dkz1qSfixKkAAQAAAAAAAAAAAAAAAAAAAAAAAAAAAAIAAYgAAAAAAAAAAAAAAAAAAAAAAACAABAMAEAxDEUAAAAAAAAAAAAAAAAAAAAAAAAAAAAAAAAAAAAAAAAAAAAAAQAAAAAAAhgBQgAAAAAAAAABPxGKXIBgCGAhgIAAYAAAACGAAAgAgAAAPcrYYAUAAAAADKEKSuhgBzvaGBhXg9NeTPN16M6M3Casz2kldHO9oYGNeDuteT6AeXAtr0Z0KjhNFRUACBAbMNKzR1Iu8UcahK0kdWhK8QJsiyTIsgiA2IAGIAABAAAIAGNCQwGAAAxoQ0BJEkRQ7gSIsGxXClYdh3QNoIiyLY5MiwoBsBMAuFxDQDALiAjP4TlP4n5nUqfCzlkAAAAAAAAAAAAAAAAAAAAAAAAAAAAAAAAAAgGIAAAAAAAAAAAAAAAAAAAAgAAAAQwAQAMBAMRQAAAAAAAAAQAABQAAAAAAAAAAAAAAABAAAAAAAAAAAAAAAAAAAAAAAWABDABAMAAQwAQwAoQpciRGW6IGgAYCGAFCGBKnTnVllpwlJ9ErkEQLKlCrS/zKco36orZQAAAAAABYAAK9yAAEAAAAAAUAAAAKSuhgBzvaGBjiINW15M81iKE6FRwmvJ9T2sldHO9oYGGIg01ryYHlgLsRQnQqOM15PqUgTpu0jp4SWlrnLjudDCsqNrIskyDIBkRsQAAhgAAAAAwsAhgMBDEADGhDQVJDuJX6MUr9GEJy1BMjZ32ZJRl3WA7icgyy7rE4T7rClcaY1Tn3WNUp90BCZZw591idOfdYFdgsT4U+6x8KfdYFYJXLODPuko0J3+ECiqrU5PwOStkd2vh6kqMlGOrTOavZuJ7pJGQDavZmJf5UNeysT3QMI1Fydkrs3r2Riu79jb7O9lzhP8AbRt42A4s6VSCvKDS6kD2csNRlBwdJOJxMT7DqqtLg6weq02IOOB1F7DxP9of4Hif7RRygOr+BYn+0H4Fif7QHKA634DieqGvYFfvIDkAdlf/AKfrc5okv/0/U51EBxAO4v8A9PS+ah//AI8/moDhAd7/APHutZD/APx5fNQHAA7/AP8Aj0fnD/8Ax+HzQPPgd/8AAKfzX6C/Aafzn6EHBCx3vwGl85+gfgVL5z9AOCB3H7CpfOfoL8DpfOfoBwwO+vYlDnVk/oP8Fw6/PIDz4HofwfCrnL1D8Jwn73qhY88B6L8Kwi5S9R/hmE7j9RY84B6P8Nwnc+4fh2E+X9xY84B6TsGF+UvUOw4X5S9WLHmwPSdiwvyo+rDseG+VH1YsebA9J2PDfKj6sOx4b5UfVix5sLHpOyYb5UfuPs2HX+nEWPNWfQeV9Gek4FBf6cPQfBo/Lh6IWPNZZd1+gZJd1npuHS7kP4UGSl3IeiFjm4H2XF01UxF80torkPHezoQpudPZHTvHqK8Wt0QeZ4U+6w4U+6z014eHoGaPgUea4NTusODU7rPS549UGePUDzXAqdxhwKvcZ6Tiw7yDiw733BbznAq9xh2eq/yM9Hxod5eouPT769QXDz3Zq3Km/QfY6/KnL0PQceml8a9Rdopd9eo7LhwVgcQ/9KXoSWAxPypeh2+00fmR9QeKo9+PqOy4cT8PxPy5eg17OxL/ANNnZ7XR769Q7XR78fUdpcOP+GYnuMf4Zie4dbtlHvoO2Ue8KkuHJ/C8T3fuh/heJ7v3R1O20e99g7bR732FSXDl/hWJ7q9UH4Viei9UdPt1Hr9g7dR6v0LUlw5n4ViOi9UH4ViO6vVHS7fS8fQO30vH0FSXDm/heJ7q9UH4ViOkfU6Pb6XSXoLt9LpL0FSXDAvZWIfT1Q/wmv1j6m/t9PpL0Dt9Puy9BUlww/hFbvR9R/hFbvxNvb4dyXoPt8e5L0FSbQw/g9Xvx9Q/B6vzIG3t8e5P0Dt8flz9BUm0Mf4PV+ZEPwap8yH3Nnbo/Ln6B25fKn6CpNoY/wAGqfNh9w/BqvzYGzt6+VP0F2//ALM/QVJtDJ+D1fmw+5F+xqr/ANSH3N3bv+zP0Dtz+TP0FSbQxfg1X5kPuL8HrfMp+rN3bn8ifoHb38iYqTaGH8HrfMh9/wCg/wAHq/Nh9zZ26XyJ+gdulyoTFSbQyx9jTzLPVVvBHSw9GGHp5IQSKO21P+nmHban/TTGsm0NNaEa1NwlG6f2OY/Yzbvxkv8AxNXbKv8A08weMqr/APbyGsm0Mv4M/n//AF/5D8Ffz/8A6f8AJp7ZW/6aQPGVv+mkNZNoZ/wZfP8A/r/yH4Mv+of8H/Jo7ZX/AOml6ieMr/8ATyGsm0KPwVfPf8P/ACBf2yv/ANOwFSbQ7gErRD3SWqIClUpQdpTjF+LIvE4df6sP4ilwmBX2vDfNh6g8Zh1vUiEuFgFPbsN8yIdvw/fXoOy4XAUP2hh1+f8A+rF+I4fvP+Fjs2hoHlT3Mr9pUf3v4Q/EaXSXoJiTaFeP9nU8TBpaPl4HBqeyMVCTjkv4o9C/aNPlGb+gfiUe5U9B2m0PPR9k4q/+W/Q2Yf2diIvWm19DqfiPSlU9BfiEvkzL2bQoWCrNfC/QPw+s+TL+3zf+jIO21fkv1J2XCj8Nq/2x/hc+b+5d2yt8h+odqr/J+47LhWvZb5teo/wv95epJ4jE8qS9RcfFfLQ7WwvZi7y9SS9mx7yI8bF9yIcTF9IgtP8ADod5D/D6feXoV58X+6K+K70SFruwUu99g7BS732Kf8V34hlxXzEC/wCL+w0ev2DsVBc/sZ8mJf8AqoTpYh/6oL/jUsJQQ+z0P7ZjVLEfOHwa3zmP/S5/GzgUOn3DhUO79zJwavzmLgVPnSBc/jZw6HdXqPJQ7qMXZ5/On6i7M+dafqOi5/G61FflQfse7Ew9l/7svUFhV8yfqOjtuvRX5Y+gZqPdj6GHskX+eXqCwcO9L1HR23Z6Xdj6BxKXSPoYex0+sg7HT6y9R0dt3Eo9I+guLR6R9DH2Ol4+odjpdH6jo7bOPSXdDtFJc4mPsdLo/UOy0l+X7jo7buPG11axB4ykvzr1KI04xjljoiHZqPdHR209upL88fUXb6XzI+pn7NR7iDs9LuIdHyaHj6Xfj6i/EKPfj6lHApdxD4FLuIdHyW/iFLvoX4jS7y9CHBpdxBwqfcj6Do+Sf4lS7y9BfiVLvfYXCp9xeguHDur0FwVKX4nS732E/adPq/4Q4cO7H0Hw4d1eguCpR/E6fV/wi/E4dZehPJHur0DJHuoXBUq37Th+/wCgficf3/Qnlj0QWXRC4KlW/aa7tT0F+J/u1PQtsuiDTwFwVP6p/En3Kon7Sl8qoy/QTaFwVP6o/EJP/RqB2+b/ANGZcmnzQ3ZC4Kn9Z+3VPkTDt1X5Ey/Muo9BcFT+szxtblh5eou2V/8Ap5epe5xXMIzjJ6MXH4VP6zvF4jlh36h2nFf9P9zUAuPwqf1lWJxXyPuHHxfyV6moTklzG0fhrP6zcbGP/Sj6hxMZ8uKNKkm7IbaSuxsa/wBZVPGX1hC3mGbGvlA0Z4jTurjY1Zb439wLYzvQNDmk7DjNN2RNjVmy4zvw9AyYz5kfQ0yairkeJEuxqz8PF/OXoHCxXzl6GtO6uQdRJ2Gxqz8HE/P+wcDEfPfoaYzUnZEybGrH2fEfPfoHZq3OuzYIu0msMnZavz5B2Wfz5midRRdmJVMzsibGsKOyS+dP1B4R/On6micssWzE/aMFPLZ22uaicp9FQt7HferP1DsUfmS9S6jUzxuFSpkdibSawpWBh3peo+w0+svUsjVzSsi2TsmybSusM3YaXV+odhpePqSde3MtpyclcbSawp7FR6P1DsVHo/Utq1MjIxq5nZDaTWEexUe79w7FR7v3NAxtJrDP2Oj3PuHZKPcNBXVnkVxtJrCvstHuIfZqPcRGNfM7Jl62G0msKuz0u4h8Cl3IlVTEKErOSuW0ZOevIm0rUDgUu5H0BUafcj6DrSyQzXsjPDE55Wi7icimjg0+5H0DhU+4vQnHZGatiFTk05JMWVC/hQ7q9A4cO6vQhRm568iyrLJTcr2FlE6cO6vQOHDur0M0MSqkrRlfyNcdhsUjw4d1eg+HHur0JALKRyR7qDJHuoc3aDfQxxxcZTyxldiZKbMq6IMq6Cp/DqUYuvGg1mla4sposuiCyM9GpxLO+hfUdoN9ELKGg0kc1YtTm4xb05muhVhJaSTfOzKLrINPAxY/EOlaz1Zg7ZVk7Z2jWMTKT07tkGhhwOInUpTU5XcebIxxanNxi3oZyvFY7dFJBZFdF6FpLKFgsAPZgLQFYwrFxnUcI3bRrpbai1pOyQaFGNrxoRi5cyNCbqWfIWU1WFoPdHPhilUqOCvdbi0pv0DQjT2KMdWVCMG+bsLKaNOoGSE5SincCbFOzcVxAFV1aNOq7zjdlfZKHy0XNlbqpF2mGdYklhqK/wBND7PS7iJRlmRCdXIxtJrB8Cl8uPoPg01+SPoRp1lOVkSnPKLKg+FDuR9AyQ7q9Crjq9i1uyuS1qDyx7q9Ayroih17PVlsJZo3F2UlZdB2XQoqVXB+BKjVVS9nsLKWgAAArinsZZ18j95kmaWmu4rojTkp01JcyitUcLssyU1XIuSRnw1ZVb25CqtTbSmo5Vdt8kaxjZJ6aFOL5krpHHoYmVSqtdNkdSWzLljrJHaeddR30ObWrulLa6N1GWeipdTESqedIakmY8RKUbtBgK7rN3VrEsbQARUJuxW68SnFYqNGcYtpX5vkZMTVg5/sJ511ta3ganGYiyJh1IzUloRlUUXqUYCUpUnm3JYiMmtEZVaqqbKsXieBBNK7bsjFhZ1u05Jr3b9CXtWVuGvFm+OLntnJZS9o55uEoqLXia4TzRueeSk6jaVzuYS/Z4X3sa5IiJ6I9JyrZXZk4VMzMuKpzlF5VqQ9mKsm1WTTtzRx7tptnPIrkFXTJ1YOUdDmzoYmOJTipZBNjqp3QAtl5AaQFNao47FrZy8bi5U8RaNmorVPxNY47dJM00wxV5WuaW/dOPRjVxNTipX11sdi11Yk41NLbPLEZXZuxdSnnjcx472fXrxXD0dzRg6E8Ph1Cp8SMxaqsTi1SquD6XuV4bG8aST0d9jFjp3xVTwsvsT9nUJyqxqL4VuejLGIxYie3Ym/dZllilB2lKzNeXMrIw4v2RPE1IyVRRSPPMNNtKWaCkVVqvDbbehbRpOjSjTbu4qxHEYR4inKOZLMrCYVXh8RGtO0ZXNJkwPsx4Ocp8VTuawAAAqM2Iq8JOTdorchhcTGvUtCV7bl2IwixFOUHNRUkVYP2bDBSlKNXPfqjNKvq/Ac+pjqdOo4TlZo6bipaN2MVf2PQrVnUlWkm+iLQ1U9YI5+IxcI1ZRTbs7M6NlBKKd7HnKj/aVP9zOvHjGXtmZp1MDiFWqSXd0Zrq/AY/ZdCEaCrKTzzV2radDdlUtG7IxMV1CuX2+KrcJ3zZsp04/5a8jO/ZOE43GzVM+bNy3NMkkrLZGYihyatR9qmm9Msv0ZP2dUbnZtu3UpxqUMW0ucbk/ZaTqTfS1j05RGjEe3WTGRQ0edszn4/EdmtJ83Y6BCrhqFdftYZvNkVl9nV+0R4ludjVWXuDpUKNCNqUMq6Emk1Z7AcSlj5TxKpW3lY7UPgRBYTCxnmVGKkuZZotFsKHM9p4h4ZppXu2i32ZVdekqkt3c2TpUan+ZTjLz1HGFOmrQgorwFCNZfszi4bG1K2JjTasm2d12e6uRVOindUoJ9bCg4r3Ucv2pXnQnHIn71zqitBvWKb8QMXsycqtFTlu7m4XurZJeQwAQxAc72rOrTjF0k22+SH7MdSVLNVTUr8zoXS6Ccl4AUYp2pSscSS9y/Rncq/Czh/ll5nfiYydjBSvRT8Cn2pGq4x4MZN31SLcE/8PT/ANqNOdR3Zyn21DF7OhVjTvWi1K/M3y+F+RHirqSvzIrjRw2LeMu4y4eb7HYpq0dR8RdQUlLYDJ7SpVatNKim5eBH2fQrUqf7VWlc2uWXmHEXUgkArjKgM2PpVK1Bwpr3jSJyy7gc/AYOvRT42/I6CI8RdSSd1ciuXivZ9etieJGyje+rOhRpumkmN1EtAVRN2RRXjabq4eUU0vF8jB7OocOpJOcZN7WNeOq2pZVzZhhNxqRcdHckuuOFxbsR0Rgxfs+pia+dSUVc2U55kOVRRdmVyKjSdNJMeIpurRlBOzfMFVTdkSbsrgYsJ7OlQlKUpqVzclZWIcVEoyzK5BIBAUKcc0JR6qxio+zXSqupxE78rG57Fbqq9gLIxyozY3Bdra9/LbwL4zzBOeUCujh+FFLNexZUV4NdVYhxk9BzelxA4+KocG3vXuPByy4iOu6aHjpqVinDv9vT8zvj9WJ9t+Mw3aLPPlsuhgxFHgzVndHTnPLEwY2WZJmMZqVlLAS/bOHKcbGyj7PjTnm4l7+BzsNLLXg/E31MaqcdNxy+1xi26Mcq3JHKp4upmzZnLrFnQo1o1Y3j9V0OTplhOK4BIZWGSn7OhCpKfEldmqMcvO5XKrlbQ4VHInQjisLDFQjGcmknfQdLDxpRtGTaXUnOWWNyCrXdkUW7GWngKdOrKopSvJ3dzSndFc6uWTQFkY5VuVYnDQxUIxm2knfQlCeYlOWWNwIwoRhFRUnZAQ4/kBB0AAQA9jLWhJrRGq9tQ43iJixmwSmqUuImnfS/Qx4j2jTu1CGbldm7GVsuGqTvtF2PON7I7ceMVcsZTLrYDNLEcTK1FpnQnByWiuZMHJqlGHhexsVTLzOU00xVcJXlUi4xdk9eRvcbqyFxU+YOWVXJERAzYjB1akWoovw9KVOjGEviW4+MupLNpcREKrq4aVRO2hDCYWeHc8zTzdC3jJMcZ5th0JAAFQZc2hTVwUais52JyllRBV03YnSrKdNU4KF725inh4TWsgzaXKZV8rswCOGhh1Jxk3dHGr1XNyd3qzr1at6M5dItnBbskeji9TLGToYGhF2k2zrRyvc5mEmnlSZulK0bo45TbUJzoUJ/EmyUYxpxUYr3UZFifes3ZmlO8EzKrHGlLdXIxpUqetOFmZZ1+G9WW0KqqptO4iRcRk9BkKjtFlhHE9pTzYqXSKsXezcu8op+ZgrTz1JS70mzRRq8GmrnbkmopnGO3di4pe6kvImpx5pMyYWfEpZhV5yhdpnCZba3KPKMfQ5Pth/5fmy/C4pVqmVXuZ/bH+n5nTj+zOXpRgJWrnZhLmeeoVOHWTZ3KDvSi+qLyeyGpVfFBxMxzsTUdJOXJFmAr8dN2tZHK2m1Ty8x8XxM9e9jDTxb7RwmtuYsdW9xAtkBURk9Dz2JqZ61SXWTO9XlkpSk+Sueam3ZdTtxeplnJ1fZs8lNa2udJTsrnn8JiJcWNO2nU7k01A5T7aT7THqDqZk2jj4qu6cvdd3e1jo4a7w6k1urkhZhx8RK9eq/33+pt9nTy04rqc6bzNvq2y72dUk8Uqb2R6OT054u7myq4KuuopK8GcfG1q1GulC+V+B5pbduMsyuRdVRdmRw13h4N7tXKMfnVKcoJ5ktBKtUauZ2RM5XsqrVqVZcVNWWl1Y6ogIAAqK5VcrswjVUnYze0I1OFN003K2lij2V2h1ZcaE4pbZkTtXRnLLG5X2hE6q9xnFxMMWsRLh06jhpqloJHZUs0UzztT45/wC5/qehirU4o8/U/wAyf+5/qd+JjJ0fZ9T9lTguhunNxjc5fsqMs7bTy8mdOabhZK5yy9y1CHaF1LVJuCfU5HZcX2lyVGeRTve/K/Q66TUEmrGYVxsc74p/7Sfs1/tJ+LRD2gnHFaq143Jezf8ANl9D0T9GI9uvHYmQjsSR52zKKtbhy1di8x+0MJXxEFwUr3vdsC6jV4ktHdE6rcYXRn9n4WthqbVZpybvoaakXKNluBl7XFyy5lfoaofCmcyHsvFRxKm5QyKV7X1OqllSTAy166pTtKVkyWHq8Z3i7oqx+Cq4rLw5xjZ8yzA4WeGpZZyUndu6AuqtqF1uY44yMpKKlqzbOOaNkc6j7JqU68akq6aTvawHRh8KMuJrqjP3nZM1pWSRkxuA7Xl/a5LX2V7gTw1Xje8ndGgowmF7LSUFPNbmXgAAIDJjKyou72ZHC11Xd1eydtS3FYSGKio1JNJO+gYfB08LHLTbte+ooOv8DOJzkvE7lVXi0cWtHJXqRXJnbjYydH2e/wBhEeLqWqRinqyn2fK1F+EmiOIlfEp+Bzz9uvHFz2toTcp2fI3/AJfoc/BpOtK75HQW1jMLnFT05dTG5a/Ctrex0qHwlX4fhnU4jheV73uaIxUVoKYZ8fVVGmpmfBYh4ht2skbqtGnWjlqRzLoKlhqNFNU4ZUxQtWwCGUBTjJ8Og5dC4jOEakcs1ddAOZg8TLEVGnsjqR2RGFCjT+CnGPkS8iDlY/Eyo1nFGrCtuCb5l86FKbzTpxk+rQNRitFYKw42XvpGeD99E8VK9Zk8FCMnKTVyPR6wbqHwmP2lXlRqJR3aN0ElsSyQk7yimyvMzYO7gpPdmmr/AJcvIklFbJBfqByMPWqVcQ4u7S8DrU/hGlFflQ7igAK47lA9mchVK0sVl1y+R17hddEQV0laJn9pSnGknC9/A2XEUc7A53BSne/ibpfCTdvAhLYQODXzOrK97Jjof51PzNuPXuGCm7Tg/FHfD6sT7b8e5KinC9/AwuM3QvNO/ijrp+6jPi3ejJHKPbTnwdnF+I5KTm0oy87EFsdiOsF5HTlMHMyyptM0Ua0oSU0/NdS6rTUk0zGrwm4s871YzfUu5TmpwUlsyRhwFTem3tqjbcrhljU05uIjXljWlGWS+6WhuoppK5bcdxSKMdGUsLJQTcuVjNgqdVQXEjJPxN9x5ghR2OdiaVaWPbUZOn15HSuFwKqMWkrqxHGxlPCTUE3LlYvuK5RzsPRrKlFTi83MDo38QJStIAJhCnsY8UqlCKnLRS2vzJ43ESoxio2vIwxxHaK8Y1/eWxJdI45mLWYuo37Nu/zNL7nJ/MvM6ntRxjh6dOF1HN/I5tFJ1kntc9OPWDhPt0/Z1RznKLXwo21V7pnwqhFtxSTe5ui4Ne8kzzt059KrPtUYcmzfUXujfBTuoRv1Gpx52YoqXOxE6lN3ib4XdKLe7RPPS6RI8WN90I6WpZcTGSi3FO5PASnKk89735mjj0+sSMq9N/mj6iipTAr49Pvx9Rdop9+PqDWU5xbWhhr0K2ZOCl9DYsVTX54+oPGU/mL1HRrP4cIvhRT3sZsRhqk08qdy3tdK986G8bT746XXJgnTqUMFV4iabVtTlWcnY6/tHEwqYacVK7a0OPCVpp9DvhPxc8om3SwWHqQrRk/hOpw3OOhzaWLgrb+hqhjaaW79DhbppKNb2dUnNSTWnibIQy04xe6RR26Hj6C7bDo/QdLpknWwbqpq6V/EMLhXhotOSd+hDt0e7L0B42Pdl6E6NMmlmfFzyUJy6RbIPGR7svQy47FKeHnFRabVtTePcpOExDlrVpHTpYONeEU3bQ5abUtDp4fESX5Gb5Z7YwxmXRw9FUKeRSzIsnh4VFqzIsXL5ch9rn8qRyt00lZSwNKhUzwk79DF7Y+Gm/3v5Gh4qp8qRg9o1pVYRTg42fM3xz8mcsJiGfDQhUqJSZ26CUYqK1SOHhLqsjpxq1Yuyp3XUvJPbOGNt08PRqpqeqYqWGo4e/CvqZ+0V/lP1Dj1/k/c526aS25YSXvFbwmGcs+T3utzPxsR8r7i42I+UvUWaS2PwFcyOriflL1FxcT8tCzQe0qmXCz8dDhfnR0PaNWpKEYVIqOtznxi51Eo7nox6xcso+VOzhaNHSTpxv1NdSp7tonPorE5dMpojDEvunC3XX+s6wt5Wkk7u92b7pU8q5KxVKlXS2h9GUuGJWt4iOiYv/XIT93U6vs7K6UZOKzdTl1IuM5xe6kzXgeNl/ZyVvE78k9OWEXNO1B23VyzNHux9DnpYrvQGliu/E89uun9bW1yViSn4L0MGXFfMj6BlxXzI+gs0j9b5Tutl6ELmPLivmx9AyYr5sfQWaR+tgXMeTFX/wA1egZMT85egtdI/W9VGlZMTqNrVmDh4nX9svQOHifnr0FppH62qVndMlxZd5mDhYj5/wBhOliPn/YWaR+tc5X1bPPVtK9X/e/1Oo6Vf5/2OXXi4V5xbu77nbintzzxiP8AXQ9lz/w+W+zaOhCVtnY4mBjUkpZamVXNqpVmv/kM55+28cYmPbo8R9X6lcpXMfBq/wDUSB0av/USM2uuP6ye1H/iov8Ac/myPs+VsQ11iGNhKnKF55s11quhTh4uVdJScXZ6o9Ed4OUx8ndiydznxozf+vImsPP/AKiZ57dtcf1uuh5jD2Z/Pn6h2X/vT9SWa4/rc5CzIxdkj82fqHZId+fqDXH9bcwZkYux0+9L1H2Ol1l6g1x/WvOuqB1I9UZOx0f3vUOyUej9QVj+tXEj3l6i40O/H1M/ZaPR+odlod37grBe61Pvx9Q49L5kfUo7NQ7n3Y+z0e592CsFvaKXzI+oniKXzI+pXwKPcXqw4NH5aBWCztNH5kfUXaqPfRXwqPy0HDpfLiD4JvF0e+iLxdHv/YWSl3I+gnGn3I+gPijPF0rfF9jmV5qeIlKL0Z05Rh3I+hzsUksQ7Kysjtxe2M6rpPCVo04zUr6u4qtRVKt1tsGEt790nsOulmi0rGOT7OnFSdGoqdXM9rWNixlPpL0MVF2qxN0ZLojDedX2FjYdJeg+2w7svQakSzBzvH8Q7bHuT9A7Yvlz9CzMGYF4/ivtn/bn6B2z/tTLczDMC8fxV2x/Kn6B2uXyZlmYMwLx/FfaqnKjIXaanyJFuYWYFx+KniavyZEJ4is1pRZe5EJSCxMfjnzblJuWjLcPOpBNQg5a7lc/8yRfhXaL8yO2U/Fcq2I+T9x8XE/KRNSHmK47R+IcXFfLQcTFfLiWZvEM3iE2j8V8TFfLj6hnxXciWZvEM3iDb+K8+L7kQz4ruRLc66oMy6oG38VZsV0iGbF9IluZdUGddUDb+Kr4v9wP8V1gWZ11QZ13kDf+Kv8AFdYEWsV3olrqLvIhKrHvIpv/ABixMa7XvtNeBli7JM3YiSdN6owcjvxenLOblvXaHH44oprRr5Hmmmi6E1lWq2I1pxdOWq2OX+t7dMUdjoU1XlBNTilbQ5y2OlSqRVON5LY6cvpnjmpRlTxHzEU1ac4yUptNvoa+LDvIpxMoygrPW5wd8c+0aUpKScXZvQ2KGJ+cvQwQ0SZ0I1od5Eazmhw8R85eg+HiPnL0DjQ7yHxod5FuHPaS4WI+evQOFiPn/Ylxod4ONDvC4N5R4WI+f9gdKv8AP+xLjQ7wcaHeFwbyhwa7/wD3H2GqVdO/Hv8AQlx4d5Bx6feQuDeSdOs3fiL7gPj0+8BLhNpdIrqxc4OKk4t80RzsTmzVsQ52MhKnOKlUc9L68jHGLlVSvbxNeOlmrPwiZsOr1m+iMvVc6jGQdNQvOUr3erKKMc1VK9vEuxkm5xu9kV4T/OPV643imbyt0KGEUtXORqWDhb4pepnp1cvMvjW/eR5unXfI+xwtbNK3S5LsdLq/UFVXeQcVd5eo6N8h2Ol4h2Sj0Dix7wnWj3hcG2SXZaPdDs1Hu/cg68eocePUXBtkn2aj3fuHZ6PdXqVuvHxDjx6P0FwbZLeBR7qDg0u6irjrpL0Djfuy9BcJtK3hUu6hcOl3YlXFfcl6BxJdyXoLLlT7RhTWGm4pJnJpa1Do4+bdCScJLxsc6knxNDvh9HPKe3WpRgre6jTHh2+FehkWfuMsjxe4zhbpctPud1eg/c7q9ChKt8tjtW7gsuV149EGaPQqy1u59wyV+79xaLHNLkc/2nUTpKK5s1OnX7qOXj5S4qjLTKjrxdyzlPSmgr1kdei0jl4OnKVRNctTowo1XtYnJPZj6alNDzlKw9fqiXZ6/eRzuWljmc72pK8YLxNnZ6/eRzvaMalOcFN30djpx/ZnL0pwivWR1ITsc3BU3Oo2nZpHRjhakvz/AGHJPyMfS9THnK1gqvzH6DWCqfMZz7aTzhnIvBS51ZB2Fv8A1JDsPP4icw/D38yRGeAyxbdSWhYtLcz2jUz1rd1FeCjebk+RTUldt3vdm/DYZOmndq/Q78nWNMY9y1U525lqqeJXTwMX+aXqWr2dDvP1PP230TqeJFz03LOwU+r9RPAU+r9S9jiYn/5FTzNOBlalvzM+LgqeJqwXJ/yNXs2jCrS97vdTvyfWGMfbXGqu8iaqrvImsDStr+rIOjhI1eG5xU+jbPPUt3B8WPeQcWPeRasFQ6L1Y+xUOi+4qVuFHGh3kDrQ76L+xUO6g7Fh+6hUlwz8an30HHp99GjseH7kfQOx4fuR9BUlwz8an30HGh30aOyYfuR9A7JQ7kfQVJcM3Gh30J1od9GrstDuR/hE8NQ7kf4UKkuGSVaHeRzcU1LEya2aR23hqPcj/Cjle06caeIhk0Tj/M68Vxkxl6V4OajnTdtUzWq8F+Yy4BQdeUZpO6VtDrRw9G3wx/hROSJ2XGemXtEO8Drw7xt4FHuR/hQnQo9yPojnUtW4+OqRnkyu9mynDyUa8W+jN3taEIRpZElq+RkwSTxUbrkz0R/1uc/ZsjXguZNYmn1ZrhCnZaFqjDoeepdLYO00+rH2mn1ZvtHoFo+IqS2DtMPEO0Q6M32j0B5RUlsHaF3Jeg+P/wBufoTjjU1FOjUzO91lfuminLNCMpQytrVX2FSWycZ/Kqeg+NL5NT0NunQNOgqS2Liz+RU9A4lT5Ezbp0DToK/pbDnrfIkGav8AIfqjdddBX8BRbFfEfJ+6F/ifkr+JG64XFFsGXFfKX8SDJivlx9TdcLii2HJie7D1Fw8R0h6mjE1HCCakoq6u2ZliJqsqU6kN9+b+g1LJ08R+6YcVGUa/v2u0tjsuWhyfaX+fF/u/zOvH1LOXpHCxlKU1G3LcnXhOKi5W35EfZ8v2s11iX4x3przJyR8m+Oe4U07upFLds2xw9bvxMVF2qw/3I68Hoc6dOX2oWGrfMXoPs1X5v2NKY7jWHK2bstX532DstT5z9DVcLjWEtl7HU+fL0E8JLnXl6Gu5ix0oqcG4uUmmkr2XqWoLS7I/nS9CXY386RnwlZuuozbc7aLMmkvodC4qC2fsb+bIOyP5kjRcLioW5ZXg/wDuSIywn78jU2QmyVBbmVqfDqWvcsw1NVJNOTXPQMYveTI4WeWvHx0D0e8G2ODj3pepJYOHel6lkXoSuWoee1XZIdZeo+yQ6y9S24XFQls8qNCHxTt5yCFLD1G1CWa29mQxNRxqWcVa2jy3uGFlWb/aQUU1dWVhUFr+yUuj9Q7JS6P1LbhcVBavstLp9w7LS6fcsuFxUFq+y0u792LstHu/dltxXFQKnhaXd+5CWFpd0vbIyYqBhxNCnGnJpbI5j0TOri5WpSORJ6M78fUMZOrQoU3Si3FXaKMU6MIyjGLzeTsaaOlGK8DBjFUzvM3lvor6GIjtq+me+h2qOHpZFeC2OLBZqkY9WjvQ+FGuRMSeHo2+CJRiaVONJuMUnc1NmbFv9l5s4OuPtkS906tOhRyr3I+hy0tEjrU/hQdOU+BS+XH0HwaXcj6DuFy9OI4NLuR9A4NLuR9AzLqh5l1Q6C4NLuR9CM4UoQcnCNl4E7+JGcVOLi9noOhmnicNTUXKm0mr/CaYwpSSahGz8DPTwVODbblNWslJ3sjTFKKSWyCHw6fcj6AFwAt7JHvv1E8HDvP1LbibJrBcuJjIqFepFPRafYrwcFJyuPFSvWqN95jwS0b8Q9WX1VY6ChWSXduV4WVOM3xHZFmP1r/+KM0NJJ6fU9M/R4v/AKd3D4ejUipaNM0xwlBflRRgX+xi7WvyNaZwqG0ezUV+VehLgUu6vQdwFQg4NLur0DhUu6vQLhcA4dNflQ8lPoK4XAeWHQdo9CNxXAhXqwpQcnFu3QrhiYznbJdaapjxEJTptQdmVUaNSM73yrT3QNnu9A93oRBgZPaaTwlTTkcOi7VF5ndxyvhqi/dZwKb99HbD6yzPt3qMr20NUWuiMWHd4ryNkdji0suugX8ERuFwJZgciNxNgZsdiKlKClDa+vWxwcRVdatKb3kzqe13Hgq71vocqlF1KiR3w6i2Z9uhgYZYX6nTpaIyUY2suhrhscJm5aXKTHmZALgNyZxfbMr14X5RZ2Gzi+2P86D/AHWdOP2k+kfZz95+R16TdjjeznaT8jr0noZz9kemhNjzMihmVVYqplpP3nHxtcx4RujVUXVqcrprTU3VIRqRyzSaZGNKnDaKAuuZPaVbh4WdnrL3V9TQ34nJ9sVLyjBPRLMzeEXKT6c+Kz1VE7NCNkl0OXgo5qubodelZIvJNyYtECy5XFrqiV11OapXE2LMuqE2uoHAxz/xlXz/AJGv2U/2X/kzFjv/AJdX/d/I1+zGlTd+p2y+rMe3WT0OTNQlUnJxgnfWE22zqKStuO8epxaGHd6MHlyafD0LLkFJcmGddQJ3C5DOuoOSW4E7hcrzx6jUk9gJXC5BzSFxEBZcTZBzS3QuJHqBJs5Xtb/MpPwaOnnT2Ob7TTnw3FXyt3+tjeE1KT6ZsE32pW5rXyOzB6HDwcnHFRuuTudiM0o3dy8nsx9L7ibK+LEammro5tMHtd/5Pm/5GXA//K/8WXe1ZqU6aXK/8jPgXbEX/dO0fRj/AF26b0LEzPGWWN2iSrRODa+4XK4zzK6QOqk7MCy4NlSqJuyRKUsqu0BjjhqqleUYTlr77m7+hspRcKcYylmaWr6kHWXQnGWZXSKJ3C5VKrldmJVbuyJYuuFyucnGNyvjixouK5CEnJXKqlfJJpixouLMupmhiszdtLD41/8A2c5zqWoxaL+IinirmhcRdWiRyGqVanGrDLK+97rkVxw0I6u8ndO7eumxLO3tITc+tzUZwaymzl+0vjg/3WdGp8Ds9TkYubnNLdrQ64TFsTHR+z3/AIh/7X/I1Yr/ACvqjJhYSpVHOStpa1y2rVjNWbSXmM5uW8IoqbtOPmjrwehxc1NP4n6G7D4yhL3XO0vEw6ck36b0x3MFXFQpytKaT8y6jNz15FtxabjzFGIlw6eZEI5mk3OxJypYi2m5CpGE1aaTXiRjJJW3IyjJu6kZ3g1Tp06dP4Ixj5IsuURi09XcnOV42S1LvBSeZBczftOi9S2nZLV6iMoKTcvEhKRTiJyi7xhKS/dVyFJynq4yiv3lYWtI4rWHkZIzyzT6O5vrx9x6cjnZJ/Ln/CLd+OeqdinUTitSeZGTCJqKzJrTmW121bInLyLbhMdr866jzIx03OXxRcV4mlSio7k2SknJdQUl1MkuLm92F11ui2l7vxbjaCl+ZC4i6lVeV4e4sz6Iop8WUvfg4/VMbQU250LOupGDio7oyYipUjUahSnNdUtC2U28RdQc0jPQUtHLR9CzESy0nJa2ESUk6keonNNHPpValWdnTlFdWbYK0RZTFj6iULLdnOXvSS6s2Y2nUnVtCEpLwRXh8JW4ilKDSXU7Y5xEMTEzLepZYbaHPxlVTmknojozpuVNxWjMq9mZpXnUf0Rzjkxie2tZZsHHNiY/u6nWU1FalVDCU6F3Ftt7tstbguZnPliZ6XHGj4iZmxc00olk6sUZJzzzvyMRlbrhj2mviivFG5VJdbHOzqMk2XRquWwyv/Gs2zidZMi6i8TFWlXTXDg5X6IdOniJL3015sxU/rDZxELirwKo4aTXvOxKNClFaq76tmRYqqHxEUcO02k7lOLnOgouNtepqMZS4b1V8WSVZ9Uc7D1pVI3aSL/eLWUJ018XwAwdqpJ2dRJoC3kdO05pcxOas9SqtvoYp4iUamS111OlsxFsdV3u+ruXYTSnfqzPU0Q41JQpxUd2Hp5PQxrvX/8AFCwds78AxWtRN84JldCTTduh6cvo8X+u5h53joXcVLRmT2dmcJZrX8CyutdDg00qonsEqijuYsHKo69m9DXWWhA1VTJOTSuc6TqKd4uyR0GvcXkFR4y2JKd1oYcRGf5bpmnB5nRee978xAm6yWjHGpm2M+JjJp2RVgY1eL7+a3iBsnUykY1k9EOtFtGHhVeNdXUQOhKTSuVOur2Za4+4l4GHEUJz+FP6CRfVfEpyt0POp2kj0WHpSjQcZXv4nHxOCqxrTtH3W7pnXCajtiW3BVcyikzdKbijm+zqM41U5Rdjp1INx0RzlpWsQm7XLrvLcwzwdSVTMonQUXw0ra2JCs08TkfvOxZTqcRXTuZ8Rg6lXaJbgsPOhTcZryEDk+1ajliMvKK/UrwVlPfU6eNwaqvNku+pjw+DqQqpte6jrOfVM122xTSuJ4pQdpOxocNLJGergJ1Xc5NNVKeeGZO6KqtZ0277F1Ck6dFQluiFXCzqXsgK6GIjWlaMrmD2xG0oPzR0MNgpYebk7WaI4/Dcela2q2fQ3hNSzPbi4aeSprsdugr0k2cungKqlrY7NCm1TUXuXOpkhmq13S1b0LcJXjiLuLvYdbAOtGzeg8JguyKXvZrnOmjrNxV0ZIYyMq3D1zXsdCdF1Fo0Zl7LUa3FU/evcULai/Z/Q89iJ56spXvdnpJxbjlONW9mzjOymnG+ngdcJiGZiy9nxujbUvGN1uRweGdFO7vc0ypZ9L2MZdysMWGxirVuGk00dKa90z0fZ1OlU4kZe94mtxzaXsShysXjHhWrpyv4mzCy4tFTt8WpKt7NoV/8x3sW06MaEFCDvFbCIHJx9GKqudtX1KMFO+I4cVpvc6+Iw8au706FGH9n0aNTPDRluRqnH3GcvF4x4WajlzX8TsZVJWbsVVPZ+Gqu9VZvMlBYV56Km18SuV4yTpxlNflVzVGnGlFRg9EKdGnUVpt2e6FDlezsbLFV3BxUcqvudSovdZClgcLQlnpRUZdUXOKlo3YUOHjcbPDVsqje66nVwrcqKk93qSngcLUd6kVN9WiyNOFOOWGwoYsbJ06cqi3irmX2bjJ4qs1KKSjZ6HVnRpVU1O7T3RGlg8NQ1pQyPwQoFVe6zi4zG1MNX4cUmrX1O80paPYqlg8LN5p01J9WkwK8N79CMmtWkzD7RbpxlNLY62WMFaF7FVWhSqJ503fk9gri4JqpXSi9N2daUfcZCGFo0pXpwUfJGhJNWewHDxOMqUMRKmkml1OxSX7NEnhcNJ5pU4t9WlcnaKVo7Acj2jC9SLvbW3qUYL/Oa52R2a1CjNPPFtlFPDU6crxVmXaapKWNXgcivia0MXwotWukjuRSe+w+DRbvw1fqRSoL9mYvatSVGk6kN7pHRSilaKsgy038Ub+YHL9kVqldTlUd7OyOlUXuMklBbRSDR7q6CPP1K9dY10lJ5c6Vrcju01aBZ7ndQaclYK5ntZ1YU1KlfNms7K7sHsp1JU262bNm/MuWh0/dXJXC8eiIK6i9xnDyYrt70q8PP0drXO/dcwzR6IXArpr3Dn+04VJJZIyk1LVI6bkiOZdDO0LUuThFUcm6kHHlZmprTY0SV3siLj5GZyxWpcySxvHeVPh38Njaqd1q2mXWfgJqT3JeMr2otJPT3h8SUd00We8uRFyl0foTXEuUe0JK7asjFiMW6svdVorYuxMXOm0YWjWOMQ0bk3u7icteQmhWNht3ElfkNIthTv8AFdLwEzQKeCqYlKWZRjHTXmdehBwSTa+hmhiFGKirJLZFiro57yzquxMZSgsqu7maU5xeqfoWqtEfEi9zM5WsRShVH0ZNTk+X3J3p9EK0OTJ0ozT7rDPLow8pCvLlJDpOz4kl1BVmLPPqhOcnukKhU+MPiroVOT7iFd9xCoF3FXQOKih37tiqdKpLaUo+TFDXxV4C4q8CmEJRWqv9yyz7v2FQJcVdULii9/oO0uZahBxQ4viL9pyTD9pzTFQWlxg4xFqXJMjafdYqBZxvIfFXgVqMuaFknf4SVCreKg4qK1CXdQ+G+iFCzir+2LiIhw5eAcPxRBPirwE6yIOnDnJsWWlHlcCTxHiR4spbRk/oHFhHaKIyxKXMUJWqy5JebE6cn8U/QreIb2/UqqV5o1GMi2rGMIt5mzPexW6jk9XcmnmaS1bOmMU649Qvw9lds1KcUYI3vZXfkXwpVJbppeJnKHOZuWlVV4A63iUVIKnFOQqc4y21EYM2u4jexKMZSfQnThdEXVjGWVtXRqMIZnJZTo2d27jq4eFZJTSduo6U3LyJVZqnDM3ZG2VMcJCHw6Fip6EI4hTfutMvjqtREDJLA0pSbcE2/ACyriIU6jjKSTQFodJ0oS1k2ZsbQoww9ScV71tGSqVZQfgY8XilOlKCkrvkS4awj5Q51Tc3UqVOUIprkYJv3jWq8YNJuxIduVT7QSWIstsq/mGAjF1JZlcMf/8AIXjBFWGqZJSb6Hqy+jx/67uHjCCtFWRoy03vG5iwc89LNfmSq1JQe5522vLTWsYpMaUfzK5kwuI4s2tdCytJx2Fi+1NbQQXXNGCOKtUUXe5rqfCLFl4d1BdclY59TESpvW7NVGfEoqXUWLs0e6gck9kjFXqOF2PB1+NJqzViWNikl0DOuiM9dtLQywxM+LktfxFq6OZIfEXgVVPhMNavOnLRXFo6MpXKKlpPUeHlxKKk0Z8S3G7QtWimkti1VMpgwNeVWpaUbWRprbCxo4t+Ys1tTlPEVIVcttDpP4F5CxPjeInPNzObiqk6WsTTgakqtFyluIkWzqcrlcZIhiU7Oxjw1Sr2iMZNWbFjpXy7klVXUhUWjOdiJVKc/cdkLHWzXVyPGS0uQwzcsPGT3Zmxikotx3FjaqmbS5CrJJamL2ZKpObVRt2XM1117osQU43LovS5xputHE2jdRbOzFe4vIQFx1exKNRT2OfjYzs8l1LwLfZspyhJTvmXVCBrlUybkeOmRxCujl0Y11jPeVTh38bAdiT0uZZ1oJ66GqS936HJ9oUKs7cJNu/ISN9NqSuglUyPUrwFOdPDqM75vHkTrxclorgSjiE2lZ6lsnZXOPgMNiKeLcqkZKHV7HYmrxZUVdpV7FsJ51c5PtHCV67i6MG7b62OjgoSp4aMZq0krNEgFWpkeuxCFeMpWi030uPFU3OLSV20c72Zgq+HxLnUhaL03CuxJtRuih4pJ2bSZfNXTOT7Q9n4nEVIypR0trd2COpTnxI5uRGrV4b12DCU5UsNCE/iSSZDFUpVISjGN200FOGJU5JRkm30ZdNtJnK9mezsRhcTKpVisrVtH4nVmtGEZpYuMdJSUfNl9KeeGbkcvH+zMRiqilTikkre8dLC05UsPCE/ijFJhUa1bhO7ehCni41ZqMJqT8GPF0J1qc4QWslYx+zfZmIwldzqKLTVtAOnNtR0MssZCEss5qL6NmuaumkcnHeycRia3EhlSta0gOlSnnhmKMRVdN+BfQpypUYwlukkzn+0atWNRpQyx5Sa0YlcYuUniJLV2XmxyxqTyucE+mxxqkXKTcpNthGnmklGN34BunX7cr2zI10J54ZjkRwVWacIpJtdTr0YSpwUZKzEM5V/ijF1uFeTdo9SqlXc0pK7i9vEMfVgpOEo5ra2OfVxVaatGGReZFiP11pYi0dUo+civtLX5l6nJcq1WynJ27q0NVDB1JLLG0X5XEnTr0ZOULvcpxWIWHWaTtEupxlCNpIrxeCli6eRPLqncrCvDYlYiTytuzs9DVU+F2M+DwEsJm97Nmd23oaZLMrIgwPHRjJxd7qWTbmbqTeS7MU/ZalUc3WteWbLpubbZY2un5DoQlUSkwVdR5J+aM9WTjJ3iyELz3aS8zhN26U0uum9kQdfyIunG2m/VsqlDhx1an4icRa8R4kHiPEzufgC15EpV7rvqxcfxZXr0FfzLQt7R4saxC7xT9AsugoaFX8R8byM2RCy+LFC+csyMlSgpO/MnaXeC810ZY6Rn7PLlJh2eVjRmlziGddGa2kZ44WaadzRCnK2o1UXVk41V1JOUjNXhiVJcKGZWLKNOplXEhJPxRpVXxRJVvITkUz1IuMG1ozFRxNWdRRk16HX4q6D4kHuiRlH4UyJNrRlOIxEqDXup38To5qfQTjRl8UIvzQiY/Dtgo15VY3tYueZI0KFFbRS8kStTYuF7c2OMi5ZVGV9i9Sk0auHQ7qGoUVshMwMNSvwknO6CniFU+G78za4UW9UmGSivyoXAy55Ih2qCds+pty0e6vQMlDuL0JcDMq99mPtFt3Y02pLaEfQL0+6vQnQzrErlK41iPFF94d1egZ49AKViPIfH8C3iRDiLoBXx30DjPo/Qs4iDiIghxZd1+guJPuy9CziL+2LioCGeo/yS9BXqv8AKyzihxfICvLW7v3Fwqr3svqWOt5CdZdUUVSoVn8MofW4o4Wr+epF+SLOOu8HHj3i3IXZbq2ZehQvZcVLM6r/AIS94iPVi7RHx9BE5FJRwkY6ZmxVMFSq2zuWnRke0Loxcd9yQvIpKOBw8fyt/wDkyyNChTd4wSKeLUe0PuF6r7qHa20XitkLixRSqcpfFUf0JxjTjqlfzIhYin2mCje2vNDoYWFJaXJOpbYcZuT1djUTMp00U1oYp4ScsTOplvrdO5up2toSzpczvHpzV0ouNrqwsbSlWwzhG17otdRdR3srlGHB4apRjaa58mb47C4i6jUrgc7GYOpVxEpxtZ+IHRvbmAoWVKE53sjm4vCToLPO1pOx1XXtpcw+1KuenCN+d/sSab472hyrZqiXVmx4SU5p9DJB/tY+Z0qdVJ7kh05fbF7RVsTb9xfzK8JSdSbsWe0v/k/+C/mRwMrVJa8j1T9Hk/118LScIWe7dy2eFlU6JFdCd43LOM1+Vnn6bKhhOBK+a5ZOi5rSwoVVUvbkEquRjoV9hV8zkXuGbS5XGupOyJTnlVx0K54GM3dzLKdJUoKCd0itYhXsWKV43AU8LGp8UkFLCwou8XfSxKDcuaRJeMkZ3xWpJ0Yz3diHYqUZZk9Sxp8mhJS6om+K1J5FLdlcsJSlrJ3LGnyaI2n1iN4KkRpxpxyx2IVKMJbsts7atXKpRnfdEnOCip0KdN3irMtyQluRjGXNobi+UkN4KLs1DfLdkrLbkRUZc5ok0rfFqPJBUk6NF/FG/mChCCtBWQsv741lW8rjyQayjOEGtUVqlBSuopMseV/mZH3F+ZmfJC6ykknuNQpd1Ec9PqGal/bHlg1TtFbLQdqfOJFTp23+4v2T/NJfUvkg1TtDlFIi1FrVXBKC/OxTgpLSpYeSE1Qyx6InGy5FfBnfSovQsUHltdXLGcFJXh3UDceUUiiVGvf3XF/UnSp1VfPG31LGcSUsUlzSY80e6imtTqWvGLbM0Z4niKMsNVSv8VtBuU23tyRCTT5IcovLsznYqvOhrklLwSLslN6tyJKSXQzYKq61HO04voxYmTgm0LKa+IvAFKzucnBY6WIr8Nwy253OpP4WLKWcXyE5Zjj4zGyws0suZPxOjhJZ6Kn11ESUtdSytdCU/EzYtuCclukYfZ2OnicS6c4pJaoXJTsKWXXYlx/3iufws5GPxlXDVFGnFSv1FlO055udwVVx0uZ8FJ1MNGclZyV2uhHFXUZSirtK6FlNXGb0zCzZdb2OTgMRiK+Iy1aLhFK98rOrOLcdmLD4/wC8GfPzuczFSxlOolRw1SpF72izfhYVHRi505Rk0m01sLKT4uXTNYON+8VYmjXcZOlSlKVtFbczYOj7QlUviMO4RW1lv9yXK03OWXXYXH/eJzoVXFpU5P6HOxOF9pxqf4fDZoW1zNb+pblG11My3uU1K1k4t/QtoYevGmlOlJS56GTH4evGLlGm0+V9Ba0y1aNKUr5Y+hFQVPZJeSK8M8RnfHjZci+o007aktU6NSzujbH3l8a+pyqLqQUouD3umXxlWavGlUa6pGJym+lpdjMuVJqNT6bHNnTbekEjVN1PzUprz0K3n7n3JtK0qp05ReiijTRlKL+JFaVTlFepJQqvuoTMjoQr00leN34sk8TBbQX3McKLa96sl4JE1QpfmrVH5JIzc/pUL3i1yjH0IvFvwK+Hhl+WcvOYpKg42VJJ9U3/ADJ/6LO1S6ieKl1+hxa0pxsoVJOz2N9GDlA3p/S106rnvZkL25GTHRmo+5e9+RHARneWdS30uNOk2bs3kF10I1Kdoto5sniFUeWVTLfqxGBs6jyvdBlp9GVQi5R3Kq86tL4EpPo0NZW2rLT6sMkOpko1q021OCiXvPYayXCVSMYQck9gpWmY61TE1FKnGmsr5m/CxtDU3jExHbMyhUtDfYjGcJO0Wn5EsfSlVouEVdvYy4HDVaM26isn4m6ZtsdNWM8qkIu0ml5s2tafQ5eLwtWrWTilZIlQttUFnWmxGosiu9i3DQcIKLWqVgxUHKm1HdoVBbLGrCbtGSbLcmlzNhsJUpzTkkdBR90k4wWwzrRpu0tAjVzr3RYijOVVSUbpDgrK3DSGsLcpqU27J6jvWXQIycJK9kl0RLixfNmJimolHNVXJBxKvRE88eTE5x6kWy4tTovUOLU7q9R548mPMKS0eNU7v3DjVO6vUeZdQuhRZcap3fuLj1O59yV14BdChHj1O79xdoq3/wAv7k9PAengBXx6nOFgeIqJfA35FmnRDsuiAzrFVH/pteaJ8efQusugWXQXAzSxcouzi35Eo4mUlezXmaLR6Blj0Fx+Ch1pJNu+hCOMUnZKRrSj0C0eguPwUKrJ66kZ11D4m1c1Wj0C0eguBljVUtVclm63NNo90LR7pLVlVSGxLMntf0NOnQNOiJYz5l4+gXXR+hp06Bp0Az3XR+g8y6P0L7roPMugFGbwfoGa35ZehfmXQMwGfiN7U5/VDzS5U2X5/IMwGWVTE5moUG11uSgq0viTRozeQ85b/iK5QkqbyxzS6EaMKzf7SGX63Ls4cQbSUuptRWpVWVWVS8MuXxYZxcR+JdskqE4Rcd9SyUs0XG1ijM2GrETkVAkss4rM2maqXwlMKea2Y0Rjl5nbG2JY8bVlTrJRV043A1VKNOpK8opu1gKCunqc6q5v4299Ed79nzgvqcz2tlz08qS0f8jMw6cU/JzIf5i8y2OftEUr2b5EaP8AnRujqUVDfKrlhrl9ub7Sf+Kf+1FOHi5Tsm11aLfaT/xc/JEvZzWaV0ejL6PNHt08HdUIp7+JqpVbLKtOpTRaS8B1ZR0cUk10PLnEzHTpErOHGM3OOje5VXi3sTjO6LI1EtLIxhlfSzDn0aNRV1JqVrm6oros4ifQFNR6HVhza2HnOV1FmylFxoRT3sX8TyIuXMoyylNcmR4k3saZ1LxtdFJynjiZbjJHNV6A51VyZNVLaXBzb5k8cGyHEqBnq9GO+UXEvzJ44XYuLU8RZ6hJ9RZl1Hjg2LiVAU6j2BWew82XmPHBsL1iKlUbsSz35g3bUeODYZKxFqot2S4ifML31L48TaUeHUavf7kXCS5k3NLRsFJNjTFNpQUG+ZLgz6r1G3lFxE+ZdMTaRw3e2YkqE7fEg5XI8VLRsaYm0nKnUj+ZCSqPZr1Gp5tEKUspNMV2kN1F/wCwVSp0ZHiJknormfHBsfFqr8rH2ia3T9Cri8iUZ5h412T7VJDWMfUqlUybi4qkTT+ltHbH1Dtj6meWnJFUqtNbpIaT+lw3ds6h2tdEZI5Zq6SIycYvWI1kuG3tUe6vQfa49EYIypylaxOUYpXyjXL9LhreJg94Rfmh9qitopfQ57qUlukvNllNQnG6X3JrkXDY8XHovQXaoraKX0MU3CG8dCNOrSnK0Wm/BjWS4b+2eCDtzXQyyjFK+UplWpQdp5Y+bLrP6XDoPHPqg7fLvGWnknDMoqxGo4w3irdRrl+lw1vHz7wu3T2zv1MUK9OpLLDJJ+FmXySSvZeg1n9Lha8dPvv1F22XffqY6mKp03abjF+JdTmpxumrDSf0uFjxcu8LtUu8yMpuPV+QoTqTdowqP/wY0/paTxM+rF2mfVljpVWtISv5EeDintQk/qhp/S0e0z8SueIlLd+ppWExMlrSa+qITwWKW1PTzLoWxyqkeLY0Sw1dP3qbISws2tIO/kKgtTx0uZZHEfvWIrA4h/kX3L6fs6tlvJR9S1Bap1k1/mL7lUq3Q0T9nV18OS3mVdirxfvKNvBioLVcZ+IuO77MvnhpuNlHUKWHqQjrBOXUTQhCdWXw02/PQ0QoVpfFOEPVjjTrLaK9RuniOi/iOdqTwk/+oi/KIuyS51vsHDxPc/8AshcPE/L/APshYlHCU07tpvxLI0ox2aRTwsT8p/xL+ouFiflr+JGtpSoXulF75WR4aX5V6lfCxHcX8QuFiOi9RtJULWrrb7kci7iIcKv+76jVKv1j6su8lQmo2/LYTgm/hFkrdY+o8tXqhvJUFkXd+xKytsFqvVBar1Q8kmoSS5fYkpRI2q9ULLV6oeSU1Tcoizx6kcs/AhKjKU1LNZW2sajk/TVdurkHKJJXStZFUqN3dza8ma3hKTUk3ZDk0tWQjBQ2kErP4pXJvBqM8epJWaK7U0GeC5fcm66nJxvYjaLew+LDovUXHiug3k1KUFYhw13X6FnaF4Bx14DeSkFTXS3mKUYRepN14voCqxY3kpWsjLVTVtiMsj1S1L4r3TpjNsyz2gSjCMnojBUqVFipQUvdXgdKhH3UVEJwjHdEcsCWPbhh3KOjRjwEp1JPO7gbVSTWxBwimaorQ5eOnUjicsZNLwA1KEW7IlKkkrseGXuq+5ZiE+BK29hRbPlRKNO60Zhwkqk6vvttHWpx90UWzONnZtgo+LKvaeeNSKg2r9CzBpuCvdvxFQWnka1uR+prlH3WciCqcV3c7X+gqC25Rb2Ymmt2XUo6FOPhLLHLffWxKhbH1JZJdWUYSLWjzNX0ub1HQtQWy/VklG+zZjq06naJfHa+ltjfQjohUFyhKFt2JW6lmOhJ4d5U7+BjwdOcX7yl9RRbVw7rci0k7M1wjoc3G0ajxLaUmvAVBbRGKlsN07K7JYaLyq6sWYqDeHmktbCi2f3blkaVzHhaM4zvKMl4s6dOOgotmklF2YRSlsVe0KE517xi2rci7DQaik1qBN01FX6ELxNNWGajNW1aOZhsPVp1G5QaXW4pLboQTRGeWDs7F9JaGP2lh6lWcHBXstRQujJS2Vy1R0uU4aEoRSktTXb3X5CBnjXje10Xwk2c6hhakKzk4WXW50aexRJ36ADjcCojVqyhdmDE1eM07PTqdeeEz7ySOZjsOsPOMU7ppsxMS7cX2Y6btVRpw9duvGnbdlFKF66Ruo4KMaiq5tUI9ry+3P8AaD/xVT6foRwtRwbSV7jxzviqvmWYKiqkXc9OX1eaPbqUHmoxfVFFaUoPQ10KbVNRS0SIY/O4Qp7QjrpzZxnHpq0cNUc4aqz6FtelNwvFO66GahDhxunds20MTbT7M8041LpE2x4StKddQatqbKuxO1GU8+RKXVDkoS5mozikpz515wnZK6Nu9NPqhcCi3d6stzQitXojWOUT0kw59fNHVO3mPDTc4yvyLsUoYiu4xaUIqwUsPGmrRaE5RE0UzYjS7Rnwlec6yi9rnRlQUt2hQwkISzRir9SbQtIVVoYp1JxnZHTlSbIdmW+W7LcIjT96lFvmjJiLxV4nQyNK1iDop7xbLcDLgZyqKWbkWVloXxhl2i/QTgnumLgc2nOoq0Vm0btsdCotCSpxW0bDavuOhzMS5xfuNo2YTNLDpy38S3JDoSSsrJMdDJiU7OxTg+J2hKTbjY6ORP8AKwULbRYuBVVWhzqyqqd4X+h13BveLFwukGS4FdNPgxvvYx4uMmrR3Oiqcu6HCfcFwOf7OjUTlnzeFzRXWhoVKS2j9x8JvdL1G0DhunW7QmlPLc60l7n0LeC+kfUfBfWI2gqXKxVOUl7t/oXYCM40mql735m/grrH0DhLvJfQm+K1LHXjdOyOfh8NVji1JxeW+9zu8KPOSf0Fw4d77E3xKlnnH3TmY7D1KrTpxzWO3kp85MGqPUb4lSwYKm4YdRkrNcgxEG00uZuvQXL7i4lBflRJ5IWpcXA4WrRxLlONovnc6c0rF/HpLaK9AeKitkJ5DVxsZgq1drhxul1OhhaNSNGMZU5JpW2L3jbEHjvFE8k/hqqr4WtUi1Gm9VzMuA9k4vD13Ooo2a5SNjx/7yIvGy6v0G8/hq0vDTa3ivqYsT7FWImpSxKjbpG/8yTxVTuz9LEHiZvk/q0NsiobaOEpUaahxW0lbYKmHw001OUmn4mNTqy2y/VheWznFfQfNemijhMBh25U6Tu+bky51MOv9NPz1MNutT7DypauUhWcp01uph734FK/XKiXa4x+GMV9DF+z6v1JJQey+40y/S4anjWtrEXjZdTP7i/Kh5oclH0L45/S4WvGz733IvFyf5mRvYOL4jx/02N4iT6+hF1pPk/Qea/MqqVlBO7L4zYTxGX4m156FkFWqK8aVVrqoMppzjh0q01mrS1V/wAqIzx9aT0l66ljjg2bFRxPyav8JLg4n5NT0OY8ZXd/ffoLtVd68R26l8UJs6jo4r5NT0IOliPk1f4Tm9prvapMXaa7TfElZbjxQbOk6WJ+TV/gYsmIX+hW/gZz+0Vk378rolHF4i+k3oPFBs0zxDpu080f9ysQWNT2mn5Cjj5zjkrpVI+KM9fCQhLPReklmj/Qnihdmvtf7wdrfUwU5p6cy5+7G5PHBs0drfUTxj6v0MnFXK5KMsy0Hjg2aO1vx9AeLfiZnOztZvyQs77r+qL44Nmjtb8fQHin4lEtER975c/4WPHBs0PFPxF2t+JQtdGmn0YrSbajFyt0VxpBs0drfiLtb8SjJV+VP0Cyy38B44Nl/a/Fh2p+JQqVV7UZu/gS4c424kHG+1x44NlvaZPqCrTey+5VZuajCOaT5IsVHEL/AEZF0hNjz1Oi9R3m+aFqtJKzW6YQVWpHNTpylG9roaQbB5+8vQVpc5MlkrK7lSkkt2KpNQjfxLpBZZfFsWQs4eI+TJ+SJZJw0qQcW+qLqlqeGNU7bE4ylUquFNZmlcsVHEc6bSLRal0roisOr7L0L5SUYNvSwqMa9emp04pp7CktWqLHwHfcv4dWmr1Y2K6tbLOEYvWTsKLThRWm5elZWK40sS0mopp9GScnT92osrtfUsQDgw3sSUFHYz0atSvKSpWeXqXxp11rKN/JgOUVJWYlSh0Kq+IVOGa46ar1YKcEsrV0wLkrbCyRerQnnpRTqJJdWzP2lVK/CpyTb210A0qEU9ENpNalWWrD3qjSj5k3Ui6bcZJ26O4DyR6EkktjDDGxnPLFtvyNlK7V2BJxi3qhKEehTi8RHD2cm0n4CoV+MrxbsBptoLhx7pJbGCWOjGq6fvXvYDcoxWyBxT3RGk3JXZHFVFRp53ewE1CPQkkZKGJ4z92+nU2R2Ajkj0GoxWyMWIxio1XBqV0aaEnNJgWtJ7iyx6IVeXDpOXQx0MXxpNRTVuoG5JcgaV7tBDYyY3FLD1LNN36Aa0l0Q7GfDzdRKXUvqO1OT6K4BaPRDSXI59LG8WrkSa8zdT2AlZc0g08DLjsR2fLo3dDw9R1YqW1wNQtPAfL6HNhjHUrZEmvEDpK3KwPxIUtij2hiOzQjLLe+gGq68AMmGqutFSasbEtEAZl4BdPoc1YpvEukls7XubaS0uLFoAARN4lX10Of7QnxKkWuSNFenKaaSbMFWnKnaMlZmXbij5K6UrVk2dCjWu1FanNpq9VGnCUpxxGZppCPa8vtixTvXqP99mj2fJ291Ju+xjrO8pPq2zTgaFWUYyhZXb1Z6s/Tyw6nbMRBf5fozPU9ovVTTV+8iNalioq/7OXkZXVnfLUptGJldW6hVU1dbDnOzKcEvdeltS6pBy2WpxntuDp1nJ2jIbqzjuyvDUHCauupbVic544ajKUY4hyllzam2GHlJe/Oz6HJqUKmrimmZ5yxiVlKr6m+PGI7pMpt2auFya06quuuxkeKnGTi1qt7HLbxTfvOo/qaaEGo+9uM8YnsxmmxY23xXJQx8ZO0Za9DLOm5aJBhsPKErs5eOGtm3tbW41jVtmXqUVKbexkng5Sne6XmPGbOp2wfbEYlOjbIppuOjZKWHpzV05LxTL4jaGrt0Oo+3Q6mKOGjG/vN36hLDw5toeKTaG3tsOoduh1OTlw8atnVm2t0noGJqU6cFOnqm7MeKTaHW7dDqDx0FzOFCpxXZOzfM0Kph6T4cpSk1uyeKTaHTftCHUi/aMeplhQoVY5km152JrDUltH7svh/ptC5+0Y9RP2lHqivgw7v3MmIrYelVyOlGT3d+RfCmzc/aKF+JI59etTq4aTppwlFXsjHCc28qk1cnhN3dWPcttfIUsdPo/Qy4WkqMc0pOzV2ya9oYSW9LfrqXxQuyx4+XRg8VWf5H6klGlJKSpwae2hK6t8Ef4UPFCbM9THzpq800OliqtaOaG3iy55Le9Cm/wDwRll7QpUZ5I0oabvKl/Ivig2lbKvWitbepUsZOUlG1m9COJxqrUOJSbpzi0nbS6KMJDiTc5N5ltqPHBs3ydVL4olMqla+mq62I4jF8FqK3fVXIx9pVb5YVHFPlp/Qvjg2XUnOpG7qW8kRq5oJtVJFLxFRbSt5JC49drWra/UaQXKOFxM69bJJaLd3NsoQS0WvmYliakLt1JadGNe0ppL353/3GtIS06vEg28ll4o0YZp0k2ldmDEVpVJpSm5QaTyt6K5tpJU4JRehNaLFdy2gnfwIxp16U48WE0n1i0Zq2JlSxEkm7c7MoqVuJNtXj9S6pbsTu09H6HOxMq1KayQbT8GZ803FrfnfmQalvd+pdS3YwqnwVmi789BVqdWd+HTm5eEWcdOzu9V06lzxEVCKjFRkt31GpbVSlUWIUKm6WzVmb3szBQyzqxmlbNG/1N0deZKHNxtedCaUba9TfhG3h4tu7aTZbwab3SfmiSgo7bAUYm6g2t0jB7PxFWtiMs2mkrnW4cZbj4UFtowIy2OTjq9SjVSi7Jo7DV9BOjTfxRUvNXAowblPDQlLdq7Kq6vVinzaRtypLQoxFLNBtP3uQGOvNyqyb6kIStNNjrOU3n1cd7d3r9ylSs9WaFiej8v5obfupcmVqaSevK33HxFktzvuBbDWFr293T1FD4H4/wDBCNSKWvQSnFRa6gWy3fk/0ZH88r87idWLvyutP7+ouLFNvqAXRYsUqUI5tcruijOm7Ru30RTV1llTu/AIupvNiHJaJ7FmMrSp5Yx5rUsoUssFfcz+0F+0h5EDw/tCph6eSMISV7+8iFTF1J1JTdouW6ilYzgaRso+0q1GDhGMGr3vJajq+069WnKnKNNRfSNjEAFqxE0077NNbGn8WxX7i/8AFGAANNbGVq0882r2torBQx1fD5uHJLNvdJmcQG5+1sY1Z1F/CjK6smrXdvMgIDYvaeLUUlVslotEV1cbiKqtUqX1v0KAAshiKtOanCbUlsy78SxfzmZQAtliKs5OUptt7u46WLxFFONOrKKbvZMpADRLH4qcXGVebi9Gmylzk95P1IgBo7di/wDqKn8RXUxFaq06lSUmtrsrACcKtSnLNCbi+qZPteI+fU/iZSADc5Ntt3b3ZONerGOWNSSXRMrACyVetNZZVZyXRshmfUiAFnHq/Nn/ABClUnLWUm34kAAmpyj8MmvJhxanzJepAAJZn1DPNKynJfUiAEnOT3nJ/UMz6siAEsz7z9S7COTxMIqTtLR6+BRbnctwbtiqT/eA6dD2a6c8+e78jdCLW4RnoSvcy0zY3CPFqKUstvC48NhHh45b5jSmO4CS0MMvZzlX4ud6u9rG+47gVwg4rUjiKPHp5L21LrgBkw+C4F7SbuakrIdwAx1/Z8a9V1HJq/Q0U6XDSXJFlwuBGrT4tNwelzNQ9nxoycoybb6msdwIpWRRicFDEyvJteRpuJMCulQ4SST0RZKOaLi+asO4AZKfs6nTnni5X8zVGOVDuFwKMRhYYmynfToyVLDqlFKOy6ltwuAWM0MBSjPOr5vM0hcBRjlK8Rh4YmKjUV0n1LbhcCulho0laGiLNh3FcCjsNLiOpb3nruXKGUdwuAAFwA2Z13Ucj2s068bK3um9zOZ7Rleqv9pJdeL7M+Ff7f6HUU0qbdlojlYTWv8AQ21ZONGfkxj7OX2409kdDD0sRUw0VQqqm1u2c+abeh0qOG9oKjB4eUIxts+f2PTk80K6i9pUd6kai9SulVq1JZatPK972J1qntGi/wBrRUl4K/6EsPPjRcnHK1pY5ZLDXh1Y1LYyU5ZS1VvI523S8Crirqh8RdULEpbHGxNXFRqzUKN4p6PLc6sqmm6OZicZXjOcVRur6OzNYsyzKpi29YW/8TdRTsr78zCsVXk/8n7M30r5E3o+gyIa6aViyxnjUtzRNVl3kZtpdYoxMXKlJRdm0S4y7yFnUtE0xA8+o1Kc8slKPmjq08TSoUYxqT97u8xY/Eyo08sHaUtE+hyW99TbLsdsbV4QjJf79SUcTCorNZX6o4qdiUakoyTTAniKNalWknGVm7p20YpwqQoZp3SbVrnT9n4niR4cntsUe2NKcP8AcBjw2tRLxLq2AxHFbhHNFu97lGE/zo+Z2q1ThU5TeyVwrNCosDQSqNcSWqj08ypYqrV17VCl+64mGc5VJucndsjcI6MMbWpytUcakfAVfC9sfGw81d6Si+Rz7mrBV3TrKz0ejAm8K8PhakpyTk42sjHB2kdfHW7LU8jiqQV2KcePRcG942MfYMTxEsqtf4k9DR7PqXdvAvxVd0qMpLfkQV1cUsLGNKMlOaWr5IoWKnPfG5X0yaGBtt6gUt0Y4uadqjjOPejuUYihKpUdSEouMtdzNGVmaKVTeN9N0QJ0+Fh5Xd22ieEnZvUjXl+xfmimlUysDXjaTqZZRavYopUJU5KdSyS8TQ53pwd+T/Uz4ibaUb+IA6yb528CXFpNaOon4tP+RlApbXFRqpxzfVFccJNvWUUiuErS89DVCpmV30sBVWSjOy5JfzNlKayrXkYMRL9p9CUa1lsSRPFQz1W1uymNPI7zkki6Tu79UmUVZNysUlJV3F3jGL/3K5KWKnN3lGC/2xSM4BF3u1OVhKg76tEYNKSvs9GXReaKd7hYaKFlKC293+ZvhJHLhUyyjp+X+bL44hr8v3MSroqSJJowLEy7qJLEy5QRLG+6C6MXaZd1DWIn3ULWmy4XRk7RPuoO0T7qJZTXcjLVGbjz6IXHn3UWyinRlGeek7N7rqVyd9J0nfrkUvuWOtPohOrPoi7JSmShyo3/AP7YrQ+R/wDxlvFn0QcWfgNilNo/I/8Ap/wPLH5P/wDGWcWfgLiT8BZSFo/IX/8Aj/4BKPOj/wDx/wDBPiT8PQTqz8PQtlItSkrKnJLySQU8PZ5pWbWyWyJcSfgLiT8CWL1ZIw+0fih5FzqT6mXFtyccxYSVAgA0gAAAAAAC4XEADASGAAAAADEADAAAAAAAAABDABAMQAAAACuNkQHcZEaAYAAAAAAF2EV8TDW1ncpLcMr14rzEjtRmyaqeJiVO+5LIzlbTap+KHn8UY1BjyMWtNmfxQ8/ijFkY8gspsz+KDOuqMmQOGLGvOuqDOu8jJkDhi5GviLvL1DiLvIy8MMguSmriLvIOIu8jLkHkFyU08SPeQcRd5GXIGQWNXFXeQcWPeRmyBkFyU08WPeQcWPeRmyeAZBclNHFj3kPix7yM3DHkFyNHFj3kHGj30Zsn1GoC5F/Gh3kHGh3jPwrjVMXIv40O8g40e8ijIHDFyL+NDvBxod4o4YcMXIu40e8BTkAlyUvafVmPF3U3fob2Ycav2n0K68X2U4T/AD/oacSrUJ+RnwavX+hoxemHmax+0M8vty96iSN3bsRSV+LNW2uYLtVE46NM6VpuKbbd1fY75+3CJpS/amIe9TN5q5OE3VWdpJsOCp6umvOxONNQjZJpHHJuEbDUSahJ7RfoTVKp8uXoYVUoklEs4VT5cvQmqU+5L0FCpRfIjUeISajQclyZodOa/JL0KZ1cSlZOJ1whmZZZPEZtaFvqXwTyK6symdTESesol9GMsvvasZwkSTQmi3hze0WPgVH+RnJpRluW0lZk+DUW8Ghwi4vVWRY9kuZ7UT4kHy1MR3MVRp4ik4Z4qXLXZnFq050ZuFSNmvudGUCLY2Rtd2A1+z5S4ysaPbDvGH+4s9nYaNOOeUo5nsr6lXtjamvEDJg/86PmdbGxcsPUS3scnBp8aPmdycoKWWUop9GyK8+I24vAyV6tC0oPkuRi18ioTZKjd1FYiouTstW+hvwlKlh5p4h2m9VG36gacZ/8KV+6cY7GLqwqYWpklfQ5Ki2wrb7O0k3+6W4736DtydyGFpypxcna1hyqxlu015kVzgLqtFptw1j05opKyTJ0W85HK3sX0oJaJq/O7Cwde3Cf0KIl9WN4NCo4eU5WTQJXf6cPJ/qyivumX1o8KUYSktFuVyjGV45k/FEGYCU6cofEtOvIhp1KhGmjfIUKPOWiL4OORPNbwsFhXW+P6DSJThmldPkv5muhgHUinnt/4kGZ6Wv0Kqy96/VGivGNOs4SlfLpoiCVOpPhXaT2b5MozAWVKFSk/ei2u9HVEEnJ2im30SCEX0l7iRHgOEHOputok1OCgm1LM99dAsJxV5R/2/zLoxChTU3DV6r+Z0KeBi1fPL7GJVjUCagbo4GHfn9ixYKHen6olFueoElA39jguc/VD7JT6y9UKLYMiBQOh2Sn1l6h2Wn1l6ii2Bw6CyHQ7LT8fUTwtPnf+IUW5+Ui4m+WGgtk/UrdCPR+ooY7Cy2NXAj0E6Een3FDLYLGp0FyX3FwF0FDLYLGrs66B2ddPuKGWwrGvgR7qDgR6fcDG0ZcWrKJ1eBG2xg9pU1CMGvEsEsAABtkAAAAAACYDDTogBAAAAAAAAAAAAAMQAAwEhgAAAAIYgAAAAEMAIkkAAAAAAAAAFuGko4iDe17FRKnpUh/uX6gdtRJqHgXwtYtRzppkUPB+g8ng/Q13XUdxQyZPB+g1DwZqv4juhQyZH0foPI+j9DVcLihlyPo/QMj7r9DVcLoUMuR91+gKm+6/Q1ZkGZChm4b7r9A4b7r9DTcLihm4bf5X6Bw33X6GnMGYUM/Dl3WHDfdfoaLoeYUM3DfdYcOXdZpuFxQz8OXdYuFLus05hXFDPwpd1j4Uu6zRcMwoZ+FLusOFLumi4XQoZ+FPusOFLumi4swoUcKXQODLoX3DMKFHCl0AvzAKG68Ti+2mnXjbufzN/Gj1Ob7TlmqRa7pZl04vszYGVsRr0OhjpR7BU6tL9TmYd2rI04ypfCyj1t+pcPa83tzqUc1aK8T0NeMIwp0re80nN/yOFgrdshfa51HXc6meWl3Y68k9uGLS8sYZYqyKst2NystURVSJxlpppKK5F6a6GWE9LofHS3FlNN0F10KY1M2wpVcr1LYuuuhixdGDTklaRcqqZGs7LURKTDmpXdjXh49SppRlma+J3L6Xw3QmblIimqNlyJXRm41icKmbYWqyTXQwe03JYWXD38DVOpl3Kaj4kbRlZgedpzlmSidhUI18NBVo3due6HPBum3UUKLf+1/1Kp4rERWsKfoy2iL9lUnK+eduhdTwlGgrwp3fWWpT2zE9KX3B4uvzVP0YtXMnUmqsm75m9SdWU5UYObum3a5qm51J5pQot9crK6tKdV3nNKy0SWiFinDp8RW6jxUKscRLNGV27p9SdKHDmm2jpRlJwum7CxDAQnCi3O9ntctnRpVHeVKMn4ozzrVE9J2+hXGvXk7cR3A2wpwgvcgo+Ssc3H4eq67nCMpJ9ORo4lT805C4ie9ST/8gMkaNSnh6k6l4pxsk+ZRDdHRnBSXvLMvHUqcaaldQQspbKEpYWUY75Tl632OzRtVi1yRXWoQjtdMljFDMoLkDbe7LnBXWo+F1uW1Z7FUlJN2TNyVKPxNrzZJQhJXjqutxaMcc0ad2tG1uaMG3xGSnCn+aN3ybbYUHGM1GK1YsV+0VJ1Yz6xsZqUXKoum7OvUpRavKN35mWVOOrzSXgLFd2la9iF3m3LY08yunL+IMkYvVy/iYVTUi5xaSuUKMnKyTuboOjOWWEm3/uZKVJRV9f4mLRlbtJrupI6dCbjFWMNqa1UEjbh3xKakQc/GQnKtUnFNrNrbkQw1KbqKTTSXU34iMG/egm+ttSmcIZklFehbE4qXK9yLzvvMXBit4IrlLDwdpQin5EatKpTlKm4890ZOFNytla8zfCnSnBSjCNn4Cywpu6hHXwLaT2eEazxjF3UY2udOEmcyjO1ZQjGzlrojopWRBcpE1I5tbGxoSyzvd9DXhp8Wkp8nqiDTmDMZq83TTlySuzNhsdHE1MsFLTV3A6WYTkRlsznYnHrD1FBxcm+jA6eYM3iUYWoq1FVFsxYiXDi5X0SuwLnITZz8JjliargotWV9TfLZgJiOfisa8NUUHFyur7m3DS4lJT7yTAndBoU4qTpwlNflTZmweLeJqOOXLbXcDeK6HPZnMxONlh6uTLm0ve4HSBtEKDzU1J89SnF1HShKa1stgL29Dne1fgh9f5EsHipYmbTja3iS9p0pVIRcI3yt3VywjkgX0sLUqptJKztqyFSjOnPK43aXJmkVgXUcNUrJtJKztqycsFUjFydrJX3AzASyStfK/U0dhqeHqBlAuq4adJq6vfoxUqE6knG1mlfVgVAauw1P3fUodKSbWXZ23AgBpp4OdSmpqyvyuKphJ04ZnZ+CYGcCxUpOcY5bXdty/sE+sfUDIBdVw8qc8tr6XvcKOHlVctLZfECkDV2Ka/8AZQ4SSvl+4EANUMFKUFK6V1ezI1cJOnFPR3dtwM4XLIUpSqKFkm/EvWBl3kBkAuq0JU5uOjt4kqOGdVN2Ubac9QM4GyWBai3mWiM0oSitYr1AgBsjgW4p5kQrYV00mmmBmAtpUXOpkdl4mjsP7y9AMQF1WhKEmlZpE6GF4kMzajr0AzAbJYNKLedXXgUSpSi0kk79EBUOOkl5mt4L3b5l6F2G9n+/GU5RaWtkiWOjCaSLFJPY49bEVIYhwUlbNbY6dDVJmWl7lbcXERTjZShh3KLs0YsFWqVZvPK6T6AdVSuJzsEPhOd7Sr1KNZKErLyA6SqXG5aXMuEblCLbu2jRV/ypPwAOIuo1K+xyKFepPEZJSujrU9gG5W3Epoye0qkqcY5XZkcBOVSF5ttgb76EeIiXI40q9VYvJndr7AdiMr7DlK25Cj8JT7RlKGHzRlZoC/iE02zmez6k6ibk29TpICLqWY1UvscnFVascZkUmotnSofCrgWylZXZHiorxubssnFu66GHAupKT4km34gdRSbVxSqWdhx2RzPaTqxxHuZkvDYDoqpck3ZXKMMm4K5bXvwJ23sAuKicZXOVg87m8+b6nUgvdAJVMrsxKpfYw+01U4kHTUnprZF+FTyK+/iBquAAUZK7cXo2VYlt0aMpbuLv6na4dLunN9qpXp221M1UOnHPyctNqorEptuMk72sh0bceN+ppx0YqhHKtXLU3x/ZeZzLtVE1pZnTpV4ydpI51JftkmuZ2KMYN3sb5PbjilKblHRJ/Uy1U7/FlNzhF7pBGlC92jlLSWHX7COtyjEKVnbc2wSSS5FiVPuoUjB7NU+HLiXv4ltdGp5eSsHuc4psUORRVXtC0llv9DfXWhobhbSKK5W5ikcqvdqyubMMnwI33LLRfJE42AwYpTs8qbfgP2ZGacnNNaczpJwX5UDcXsrFoZcQm0zAqVXiq0ZWudhOPNIeaPRChnrr3TmVlv7ra8DsPLzVzPWyvkgOdSp+43a2pTVVtjoOKIOjFvYK59CEnXTs8tjRVhoaI0orkSdNPcIwRhGWjTZ0KcLUUuiHCnFci5JW2A5leMr+7FsMPCWZuUbaHSmk1okvIqyIKxV1YxqlUdRO2l+p15U03qhKlHoBVKPumacZZvdVzoZECpxXIgpwVNxjK6s2OvFt6K5qikiV14AcrJNtJw+pfVjZGmUVcjKK5gcivRnUfumvC03CjZ7mrhx6IaikUYq8Xf3VqGHpT4kXKK0ZtyRJxiltYCFSPumGpSrXeWKs+p1VoQnZ8wMdKm1Ss1rzKMRBu6judBxRDLF9CDm4TDyp1lKTRsqR91l6gvAHFcyjnSoVJfDp5m/DQcaKi90TUY+BZHwAy16M5v3YvzKY06jqxc7WXQ6LmrWuVuze5BmqRsjFVwsqk73sdRpLcjaPUopw8MtJRfLQjWpOekdH1NSWmgm0nZkGWhh5wqqcpXtpsdFK60Kozje1y1Sy6gZMR7M7TUU5ScdLWRtoUeDSUNbJWVxKsuV2WRk5cn9UTaCkKtB1ouOyasUYb2XDDVM8HJu1tTXefKEn9B2q/Kn6C4KJpu6S1MeJ9lLE1FUc3GS6G5wqJf5cvQg3UX+nP0FlI0aCw9NU1stgq0ONFxfwtWZJOT3i15oUpSi9IyfkhtC0ooezaeGnnp3vazu7l8lfQg6kucJ+g5SshtBTPWwFKvJSqpuVraMvp01SpqEdkrIrdZ92XoShUzX0a8xtBQqUVVTjL4WrNFdHBUqEs1OOVvfUnOplezfkRVZ3+CXoNoKXNX0M9TA0Kss1SKlLrdotctCHFl3WNoKWQgqccq2RXVoxqpqXwvdDjNvdWBuV/di2TaCldLCUqLbpxyt76kq0c0Wh/tH/AKbJVKVTJd05ehdoKcyWHkm7TkvJjjSa+J3fU0Sv0I+Y2gpRKlO/uSygqVXnUbXQtnJRV3sONSL2LaIcFW2I8Gr8x+pqUbq4s8VoyoojRn+duXmEqMvyPK/A0xtLYJWjqwMnBrfMZPhXWqL1OJPLoBi4NTlUaXS5KFGafvScl4mhyinZji4y2AzSot/C7PqR4FX5jNkllV2iPEiBQqTt72r6kZUJ5vdk0jYkmrkJSjB66FGaNGonrNslKjdaF8ZxlsTcbEGLs9T5jJwoyStJtl/Eh1JRtJaFGWdCTacXbyFwKnzGaptQ32EqkHs0wKeFdalfZ530m15G3KVupCLtJpMCiFGUd5NjnQclo7M0xaltsEkoq7IMfZ5/MZYqTtZ6lqqwezT+pYo3VwMcsO3K6k15MI4dp3zN+bNM5xg7SsvMcJxntqBRKjdWK+yvvv1NzjZXKuNTva69QKoUXFWbuOVDM92jRFZlcVSUaaTlZLqwKoYZJrU1U42RVCtGXwtPyNEdQFwKbd3GN+ticYRjsUSxUIScZSSa6stp1M+wFjipK0thKlTW0UvJWFUlkjmKIYuM5Wi034BWuyWxF06cneUYt+KCLbVyqtiI0ZWk0vMC5QgttBuz0KKdfiWy2a6lsnaLfQgap0+6vQdktjIsbByy5lfoaISclcom4xl8STBQgtlYqr1VSs27IhTxKqfA014EGkWSHRCWxmnjIQnkckn0KNeWK2Cye5VTm5jrT4cM72QFmWHQNEZKeLjVfuO5pjdoCWWL3QZYrbQy18VCjUySkkyynUcyC7Rhlh0IVJZKbl0M1PGRqNxi7sDZotgtF7ohBtq7KcTio0JJSdrq+xRptHkg0M9Ks6iTT0ZdJ2i30QErR6BotjDDHRqTyxbv5Gqm21qQWWXMLR6GbF4iOHyuTtfwFSruqrrZlGoBABXPFODsyr2hLPSoz6pmqp7OlU1bt5FHtGGSjShyjp9jP+OnH9ocpPLUi/EniKueOXnF7EcrlUS/QdWik3lldt3ZvjmIntrmiZ9M9N2qLzN+GrN1YxfN2MlOg1NNvQ1QhGOutxyZRfTGHFl/rfVnFL4lfzKFWqZvdjm8mU3091W82WU6lJaSjmfg7HLa3bxREN9OV6a62M9XEunJrNcy1KzWkW157kKavLXU6RFvFyckYzrDbDG8sjk/MUsWm+cX4k6uLpxwbowoxTf5kc6Um3ds1rDnPLMOhTrtyWaccvmTqVlLSGvjc5sJ2di27tuKPLLSszfxFudKOr+pkp1JQd9GXPE8V2mo6dESljNXXrukm+Rdg6zqptq2hVKjGo8knozVRwscOrRd7kp0ibV15uOtzJSxrnWyW523OjPDOqt0kUw9l06dTiKTvvYU0nVdonPrYl03Z6nUlTc9DLWwEJO83fyAroy4lJSfMqrScNUaoUlTpqMVoiqpQc99iKow1d1arg1tzL6miFRwsaU8yWvW5bOm5bAYJYtwmo7nRjrTT8LmdYGnKWaSuzZGHuqK5aFRgxFZ0k2SwdV14uTjZctTRWwUJ/G7+BGjh4UU1BWuRVda6WhkWKlxVC3OxvnTzFUcJBSUsquBbJaGLEV5UdUdBq6KZYWM/iV/MAwNR1qTk0Ou3G7RdRpRpxyxSS8CU6CmveYHKoYudTEcK2l7XN1RaD7LShLNGMb9bEpRugOZisTKg1l115mzCydSipy3fQbwsJO8km/EthBQjZbAZq94ptbmfBYqdbEZJJWRvnSU9wp4eEJXikvJASqL3TmYvFVKE0o216nYyKStexVPC0t7JvxRUVUG50Iye7VynEycIykt0bFFRjZbFc6KnuRXP9n4mpXruM7WSvob6i0CFGNN3ikvoTlG6A4+JxVWnVcYtJHWwrzYeEnu1cXZ6bd3FPzRbBJKyAyYxuEJSjuloZfZuIqV67U3dJX2Ou6NOWsncrdOMXeIEai0ZycZXq0quWD0sddq6IcOIEcM3KhBvdq7Kca3GnJrdI1JKKsiM4RluBRhaaVKE5ycpNXua41IxM7TWieiCKTetzjOMzLcU2LEpbIO1tbOxQo0+gNR/KiaT+lru2T779RdsqfMfqVxUFutRvL3S6f0tPtdTvy9Q7ZU24j9Sm2upL3e6hrP6Ws7ZPvv1H2yp336lElfZCStyJrP6twv7XO3xEXiG+noVNeBBwuNZLhfxn4C43hH0KOGGQayWv43hEOM/Az5AyjWS1/Hfh6Bx5dSjKGUuslruPLvC477xVlDINS1vHfeYcd9SrKGQalpOr4iz+KIOCYRguRdUtHFNOjtd35GXD05qu5OGWLRuUFzLIqPRHTHqKZk0tDm43D1ala8I3Vup1EFo9DSKcJFxpxi90tSWIjem0t7FyS5ILJ7oI5GEw1WlWzTjZW6nVS0RLKug0rbAcv2hQqVZxyRvbfU0YKEoQUZKzNeVdB5V0ArqL3Gcilha0ayk4tK+9zttX3FlXQCFNXgjH7RpTqRShG7TOgkgcU+QHOwFOdKNpqxuktGSyroOwHFq4atLEymoe63ozqUF7lmXZV0Cy6AZMdTlOg4xV2zLg6FSlL342Oq4p7hlXQCKWhzcZh6lTEKUI3VrPU6thZV0AzYWLjFJqz6FlaN6Uki1RXQdrgcfDYarTqqUo6LxOpBe6TyroOwHP8AaFCdVxyK9tx4KlOlHLNWZusug7LoFQa0ZzOyVVXc7K2a51rBZdEBVRWhXjqMq1HLHe5qt4ABzsJh6lG+ZLXodGGyD0GgOdisFUq15Thlt4myhBwST3RfcL3ArxEHUoygt2jFhsFVpVXKVreDOlcMwRGC0MmPwk8RJOFlZczbe/QM1gMuEoTowUZcuhqavFrwHmXgK4Vy4+z6yrqfu5fM6VNNLVWJZh5rgZ8ZQlXpqMWr+JTg8JUw6eaz8jdewZyARzq+AqVcRxIuKV+Z0b3FmKIUoOCSYYim6tFwT3LM4XsQYMLgalBttp36G+KsgzrqGa5RixeBliKynGSVvA0UqUqe6Lc9uYZ/EgjVjnpyj1VjHh8BOjNyzJ/Q3X5hnXUoUU0rMy43ByxUk4yy2VtjXmvzDNbmBTh6EqUFF62Rc1eLXVBnXULgYafs6VOrnz38LG2EWlqPiLqGdPmQZ8bhe1Ris1rX5Dw+GlRgo3vYvcrC4i6lEktAFe4BF/aI9TJ7TadODb5lFZSzPKm+ljNi6rq1dXpFZUjMz07cWN5Ixk3pHS/JHQwtPCZJPFSlotLHNg8ruTdVtWuZiaerLG/Qq1E9FFWWxCFS2nIiyPMktxHS/O29ESi7clfwKEycJahnKOjd2xp2BW1Ivc9L4E+0nO4tGKw0ggS1LYv3bEYxJfCFg3ewkmncFPwZNTI2lCfvK/I106yne3I59STs8u5d7NjKNOWZWZmXXBslXUNwjiFJ2RRiE2nbczYOhUWIzTg7X6kdnSnPKimVePUsqr3Tm4ihVnO8E7EG9O6uVyqxi9SVGDhQjF7pamfERlJNRWoVfCpGbsiUpZeRkwFGdOpJzXLTU01tgBVo33Ls1lc5UsPWnVTS0vzOrb3F5AVyrxW+gRmp7GTF0alSLUFdlns+jOjSkqlrsC6c1Hcgq0G7XV/MKyvsjFTwtXtCm17t77gdFuyK3XjHfTzLZrQ5+Jw86z93TxA6FKanG62CdXJuV4KlKlQyS3HXg5JpK4CVeE5WTTb8SUnZGHC4KrSxPFm1a+xvqbAUyrwi/eaXmyyElOOZbGDE4SpXkmrJJ8zdh4OnRjBvVAKdVQ3WgqWIhUmoxab8GRxEHNOMUZ8Bgp4eu5SaafQDoSk4ozzxcIu0pJebNE1dHLxfs+rWqKUbJeIHRhLPBSWzK6lXJvsToxcKEYvdKxRiabqxcI2u+oE6WIhVlli0+tmWVHlVzFgMHLDVnKUr3XQ11vhAjCcpq60LoRdtWjLGThFJp6E1VdtDjM5W3EQ0ujVteMo+pTJVIu0kvoR4k3yZFzfO42kqEpN20vfyK71Og+J4hxf3htJUJRbt725GWdv3dg4r6i4v7w2kqBGNRvVFqoyktLIq4viPjNdSXK0uWGnzqIkqCW9Rehn4z8RcRsfI6auDT51H9EHDoL88zI6kugKpJvYfI6bMuH6z9Qy4b9/+IyOckR4k+g+R022wy5T9R/4buSf/AJGJSkxOc76CsjptzYdf6X3E6lHlSXqzFmnzG8wrI6aXUpfKX3DPT7iMf7R8/sSjmtqNZLhpbpv8qF+y6GaXEv7ok6vgTWS2r9lzuGWh3X6md5iOar0RdZLhqtSW0QUqa/In5maLm9xSz8mNZLanOm/yJeQr03yMqU1u7kteQ1ktc403yFlgtnYozVPAalPmKkXOEX+YXCXKX3K+JLoGd9BUnS69lazflqY61apTbcYOUVu9rF0vfVmQ7NnerdmdcfXbErcJUdWKk+fIvq3ULrkRoUFRiktkWTjmVjSOdQx7q1VDK034nSj8KM9P2fRpSUoRs+tzUlZWKjDjMS8M07NqT6lmErOtFStZFlfCQxFuIrpbakqOHVFJQWgEqi912OavaDdZ0srvmte51JK6sZV7OoqrxLPNe+/MC+nrG7M+NrPDwz2bW1jVGOVWK8Rh44iOWavEDNhMS8RrZpG1rQpo4SFD/L0XmaAOXWx7pV3TcW7c7m6g3KN3zKqns+lVqcScXmfiaKdNwVuQFeJnw6TmuWplw2MdeVkmjdVpqrBwez0ZTSwNOi7000/MKvS91GHF4p4eqo2vmN6VlYorYSFealON2ttQFhqjqxUnz5F0/gdtxUqKpJKOxOSumgObSxzqVFBJrXe50KesSmOApQlmjGz8zTGLirAY8dXeHSkle+lriwlZ11dq3gaK+HhXSU1dIKWFjSVoaAWNaHNnjJRrypZdna9zqWM7wNKVRzcfeet7gSo6q7I4ybpUHNK9i6EMnkFWlGrBwkrp7gYMLiZV5NNWsdCOyKqeDp0tYKz8y5K2hBzsZi5UK7glfS5pw0nOKk+ZKrhKVaeacbsshRVNWjsAVXalJrkrnOo4udSply2XU6bipRcXzKY4KlCWaMbPqgLKa90y+0a88Ooyik79TZGOVWIVsPCvZVIppFGXB1nWWZ6G7kQp4aFPSGiLLEHIljKka+TKrXsdGhrHUUsFRlLO4LN1LY01DYCnGzdOjmjvcyYPETrNqWlnyOjOnGpHLJXXQhTwlKn8EVHyAnFaI52MxFSlXyq1jp2sVzw1Kq7zimyivDtySbLMQ2qMmt0iUaUYL3RuKknF7Mg5eFxFSrUcZcuh04bEY4WjB3jFJ+BYo25gc72jXqUKsctrNcy/DtySbNE6NOq7zinbqhxpQj8OgBL4JeRysPiKlSs4SasjrW5EFh6Sd1GKfVIApK0TL7TqzpRg4NK9zaoqK0YpU4VLZknbqgMeDnKrCMpbs2oSpQj8KUfIkBx44iq8S6batex06K0JcClfM4q/WxJRjHZgZPaU5UsPGUHZ5ivBTlVpqUndm6UYyVpJNAqUFskvIIFsA7JAUbW6dvhR52rD9rNc02b+0zU8rKfaVBwqcSP5t0Znt6OGammKbtoism1rqJow9kFZgMaXUKViSUugNdL+hKLaTumvMMykveW1mGz1IOTvoSnW4ULyjmZ0xz/yXzv+R/xe9sTsSUS7DQjVpqdreBKahT1Z02h4fFlBQglHNLRFU2pO6LLwqpNTTQlTS6C01mEIonZBaK2dws2/ALETKdK2bVXNicb6JI5lbEcL4Ua8HUdWm5PqZt6MYpuhKCXwok5K2iRgrTlDVMhhcU6tZRZLdHRWXmk/MU5J8kVVm0tDBVxcqcrNXFje7EbLohQealGT0urmavUlTTdyK1JILLmZcFXddyvyLa11qgLkl0Jp+FzlRxkuMob6nSl8P0Am5K2yINroYcTiJUdd/AuwVZ16Tm1bUC/ToKyKa7a1RkoY2VTEKnbS9gOl5hp4Cnsc/E4qVB6K9wOmiamktkZsHUdWgpvmQxEnHVCxplK/Qg7czn4PFyr4jI1ZJm6rsBLTwA5eKxc6Ekkr3fM34eTnQjJ7tXAm2l0BSV90VSSbbepKDgnyOc8lNar1JR3sJ1U+aEqkLbEZVIP8pnymocr6kXNLmiLlHxIvI+RfIuqzOns0JtIrtBO6/QbyyWrHkTUpuL6EUlyJKlTZZGFNK2aw3WlfEyq1yEpZuZdKhRerk/UjwaUdYyd/FjeClLiiNkXyhF6ORB4eHffqTaCkFG+wmki6MFFWUvUjKgp/nt5F2gpWkiTjbUlDCqMr8VvwZf2dSVuJBepdoKZrx6kklLVEpezZSfu4qEfoWwwjpxtxYPxFoobS3Yk03uXVMG6l/wBrFPqiFPAOnLNLEZvBobQUTVlcjmj1NToJqzqL0KZYGk3d1p/Rk2haQjaS0FJqO5ohQpU1ZVGEqOHl8Tk/J2G8FMynEm1ZXLY0cHF6Rn/ETbw/dl/F/wADaCmTPElBqWxdlwt/8lPzY06EdqVvqNymeclF6iVSLNLnRe9JPzbFnpLalFE3KVNaXK+JG5p40PlxH2hcoR9BuUzxalyYS02TZf2l8kl5ITxM+8NylCjJ/kkSVOT2hL0JvES7wuO+8TeVpHhVO4xcOXdJOv8AvC4zf5i7SUTpvui4cu6S4r7wcb95epNpKCg+g1dchcV9Q4r6l2kqFin1HnttqVcVgpjeUqE+Mk7PRlsZZldHNxN54qnlTslq+R0KS9xHWJuGJN1Ip2bGqibsYfakKs4rgqWa+uXoS9nxqRhare/iaRtbsrsjxI9SU1dM4sqeJ7W2lPJm35WCu0pKS0FKai9RUVaBn9oxnKg+HfNytuBoVWL5krnN9nwqxvxlJPlmOmEQ4sepKM1LY5GNp4h4q9JTy6bbHRwiapq+9tQLpSUVdi4sepDFJuhJR3s7HNwUK6mnVU7eIV1k7q4nUSdmxx+FHP8AaVOtKpB0c2j1swjeppvQbdlcy4KMowWdPN4mqSvFhUeLHqSUs2xyKVLELEPMp5b89jrUl7oDlNR3FxUzN7ThUnRXCTcr8ivAwqRX7RNeYG8jxYk0cjE0a7xcpQjLL1QHVjNS2HKSirsrw6tFJixkJTw84x+K2gE+LHqSTurnMwdGtCf7RSS8WdOPwkEZVVF2bBVVJ2Rh9o0qs6seGm1bWxfg4OMIqSs+YGpuyuQ40ScleL8jkU8NXjXUnF2uB1oyzK6FOoobhSXumb2lSnVpRUE20+RRoVaL2dyy+hzcBRqU088WtTpLkQVceKdicambY5WJw1Z4nNGDave50cOmoq6swLJzyK72IKvF7aixcJTw8oxV3yMGDw1alUbnFpPxA6id1chOtGErNpMnFe6YPaGHq1at4RuijbGqpPQlJ5YtvkUYWEoRSkrNF9RXpyXVEFaxEXsyyMs3I5lDCVqddycfdfRnSpr3QFUqxp/E0vqKNZS21M3tLDTxGVQtouZPC0pU4JTVmgNXIp7TBuyav0uXnLhgqscS5tLL5gdGE83IVWqqSTk0k+o6SaRTj6Eq9FRhve4E44iM/h18i1O6MWDw9SjG00blsgM8sVCM3ByWZcrlkJ5jBWwVWeLdSKWVyvubqUcq10AlVqKlDM3ZFUMTGfwtPyJYuk62HlBbuxnwmGqUItSS35CRsTdgBbABZL2cnLNJ3fgZ/ajacLeJrWJjJpJmH2q7zguiYn06cX2YIzU5KDjq+aYTUacmpOxCn/nRI4t3m+ZcMIyl15OWcPS2lw6krJts3U8InG9sq+5y8JPLNtnXw9eNT3VyE4REufmyyVSwlTeLj9WQWEm371vU2TqqL1IcWLe5ioWOTJXHDJbK76soq4NzlZs2SllRXx4J6vUtQzOUz7W4ejwqSgSqYF1V7zSTCnUTjmWxJ4hR3bKxKmHs+GHblu31Izo91IudZT2ZVOok9UyszCrhyT2RNxutNx8SL5jk7K5EpnlhHVl72xtw1DgwyrmZ1iYJ7mmjVU1dFE54R1Vq0kKlgKdCamrXG8Qo7jjXU3ZDpU5UnPaxnqez6cnmk7l8qmUreIi+YDyZYqK2RTUwyqK0noXOWlyt14rcilRw8KF8kbX3HOm5jjNT2IzrKG4EI4Kmp5sqcupqyuSsZo4qDdrl+eyuBXPAwn8dmSp0Y0Y5YJJeAniYc3YcaimrrUCM6WffYrhg6VOeeMFm6lkqqjuKNeEnZNXAnJXKZYSE3eaUvMtlLKrkY1XL4YtkmhZTpqEcsUkuiHLDKp8TVugRzNaxaCVSUfyS9CXC0rjhadJ3gkvIco5tBcXM7Wa80E5ZVctlK3hqbd3FN+JNRyxsit4mC3aXmTjLNHMthYrnB73KrTv4Fs6ii9SMKkakrRabMawtyjaXUeV9Scvd5FUsTSi0pSSb5DWC5O0iLUy9e9G6K5TUd1YawWgs/MHmJU6kakrRafkyc/dV7DWFtVeY1KQnWgt2l5ssUc0c3UawWrzyDNLoFScaablZJCo1qdZ+40yawWM76BnfQsnGyM88TShJRlJJvkNYLWZn0DM+hOCUoprmQnJQu5aIawWM76ElUZXSq06srQkn1sWyhlVyaFjivxDjeZRPE0oStKSTL6aU43Gi2OK/EOK+jI1Gqer2IUq9OrK0JJjQtbxH0FxH0JyhZGapiadKVpuzfgNIS12eXQWeXQnTWeNyNV5NeQ0gtHNILyK6OIhXk1B3t4Glw0bLpBaq8gvIqrYmFGSU9G/A0UvfjfqNYLV+8JZnzLKvuK5no4mFWbjB6ousFrbMWV9WXuGhnnOcZWVOpLxjG4qC5SUH1E6d97ltKMpK8oteDQ50qj+CLY6O1HBRPJoONLEfmjGP/lf+RbkdrC4O2fgRJRpJbBVhVpwlNPMlq1zDC1OKs3I1FSkm6SYuAuhdUvGN0ZqONjWm4wvddUWoS1vD0FwUaFHRGaviFQmlLnsKLNUrPmS4SY6FTi6rYsmrRuhUJZU6cVyLEkloc2PtSDqKGWSTdrnRg243ZRK0Q90yYmvKlJJK9yNHEyqStZprcWU26BaJCTtF2ME/aKhPI73vbYo6VktgsnuUUajmrsMRW4MM72W4F9ohoYqGNjX+B7eBqb90Il7q5DWXdHHq4mrKcrSaUdrGnB4idV2lyNzhUWlt+j3HaPQqqScYOS5GWlj4VZWhe/kYVv0WwJIjBtxuzPicVHDyWd6PYDVaPQNDPRr8ZXjexe9IsKdo9AslsYVj48Rwu7p22NdJuSu2BPTmP3ehnxVfs8M7vbwK6GK43w3+oGzQLR6CWqRjrY2NGq6cr38gNvuhpzKaU3PXkSrSyU3LpqBZp0DTkYaOOVZ2jf6myN3G7AloDsZMXiezySd3faw6Fd1kpLZgatB6dCL2ZgXtCLqZLO97AdHToGnMqptyV2QxVXgwUuQGjToGhhoYrjbXXmbI7BEk10C66HPr47g1nTabNNGbqJPkyKvVuY7roU1pcOlKXQyUcbxZ5UmmgOhpyBNEIXa1M2MxXZ5pWbuijbddBXRloVXVSlyZofwvyIJ5kJtdDmwxznVdPK19TdTu1dgWJjuuhkx1d4eEZJXv4kMPXdaKlsBtuhqS6EVyOdPGuOIdO17O17lHTckK5TRberZHGVHRoZ0r2YGnMvATZgw2IlXV7W1NsV7pBPMhZkc3E4uVLFumlp5mujeVm2LF9x5inEScKE5LeKuY8NiZ1m7q1gOg5LwAhFWSAChUqrrxtF2zLUPan+cl+6dhuHdRxfar/wAR5RRKp14vswQvxlZXZCrGSvmWt7l2G/z79ELGpcV26I68Xtnn9s9Jas6HsqnKM5uXNGbApOraWx26cYKKyxSJn7c49M+IWhgjTqOumk7HZcY9EyDjHkkc21Vb4Tl4i7lY6GNqcOi2t27I50Kqc9dWzUYzPaXDpYP/AOMkQrptO2rLqFrJaGyPDt8CIjl4GnKM25K2hdXjobKmX8sUilxT3QHLjTqca6TsbMTNU6bbL3FLkc72lO7jD6s1jFykyyzq55XsdX2emqOvU5WHjnqo7dBJJI1nERPSQrxCbuluV4CjUjXUpqyOnBU1+VXJNxtokYpWasvdObVw9WdT3Fp4naWVbq7CTj0RKVmimqUU90tTHiacppqKuzoNJiaS5EkYsDRlRjLPa7J1op7stm7GSbcpWOU5TM9NxHSiFJqsklfU6kl7pChCKV7amiOXnqdYZlyMbQq1VammzXgaU6WGyzVpX2N149EQfkVGTExbTS3MWDwtaGKU5L3b7tnWsr3sLToQQqbEYVVCNkixpPdEZRXQzljs1E0FibEu1LwIKK6FiyWtkXoc/H/V2RdeL5Ii6kHvEJxg9oL0KnFDSVuBOjh6jvKCfmWQjFRUYtJLZFWXxYtVzFZQdLKmG4qtnSKsH7MlhqjnxM9/CxJSkiSqyXUXlBULp0JtaI5eI9mYiddTjFWXVnQ7RJdQ7TLqN5NTpwcKai1qkZ8TRlUi0luXPEN8xOu3zG8lMuAwc8NKTk73Nk4uS0RDjPqLjS6sTnJTLX9m1a8l70YxTudGnQlGCjdaFPGl4hxZeJNsioPE4DtEHGVTKn0RVhfZsMLJyVVyb6lnFkRcpC8yoXSgmrOSMtT2fhpzc5ttvxJNyFd9S/I6XRjCEVGL0WwpU6M01P3kyrXqPXqKyOllKjhaV3CCi30Lk6POLfmZderDXqxWR00uGDbu8PTb8UixVKCWlJJeBi+rD6sa5HTY6mHe9CL8wUsNH4cPTT8DH6h9RWR028WhzpL1ZCSwcviw1OT8UZfUPqxWR02KeGSsqVvJik8LJWlSbX+4xtvqxXfeYrI6aoU8BTd4UMr8Gv6E3LD92X8S/oYr/vMNerHyTponSwU3eVHM+rZJOhFWjBr6mX6sPqxWS9NTnR5wv5sSnQj8NGC+hmCxKk6aXiI20hH0F2l8rL6GawZWXWTpoeKm95Mi8RLqVZRcMaFrHWfUjxWJ0+drjVMuiWXEzaaslhaLpq3IlGKTLos3jjTMzaM4Zo2Rnp4GNKWaCs+fibEx3NoilojNXwqryTd1lehquFwKaNHhabonNXjYncAOWvZCVVS4nu3vlsdGKtGxO7IyYsUyjFzvKKbW1yNk5aJK3Qk1eTI021NnKJ+Tf+LJ/Czn8KPHcZNK71b5HRb0MGK/zb9UdVwiJmpXYadpOnvbmi7EUePTcNk0YcI7V/ozpxYTPGp6Y8NgOz6qTlc0z0gW5ijES/Zy8maj25uTvmfVmnAL3m+VzGn7p0fZ6aop9W2ds/TMe2ucc8HHqZaPs6NGeaMn5M2xJJnBpGKsrFGLwixTV21l6Gq4XCs9DDugrbova0Y7hcDD+HriuopO7d7GunFxVmTzBe5BTiaCxFPJLYroYLgP3Xc1JjuURSMtbARrVXUbaZsuFwKqVJ00kSqRzwcepO4gMlLARpPNBs1RVlZkribIM+JwkcS05X06Do4fgpKOqNCYXARi/DYcV1E3q72NoXAhTi4aEa9FV4ZHsWJ+I0wM9LBqj8OpoSsh3C4GStgIVqmd3TLqVHhpLkW3C4EKkFUpuD5mel7PjSnmi3fxNQ7gJRaWpTXwkMQ05308S+4XAqpYfhK0XoWNX0HcLgZVgKannV83maIwcUNzS3ZFVYuWVSV97AKvh4V0ozV0iNLCxpK0Ni64XAErGZ4Ck6rqWeZu5pC4EY03DyCrSjVhkkroncVyimng4Uv8vTmXJWHcVyCmphKVWeeUdepZGll22JXC4CnBTi4vZqxVTwlOm7wVrl1yuVaEJZZSSdr2AnkaAqWIpS1VSL+oAbnI4/tF3xE/p+h0nURycZLNWm/Eku/DHarDf5rfRCxnx/RE8KrubS6EcXrNeR14vs58ymi3xVlll8Tu0X7iODShnqKN7czr0qyjFIcntzx9NZFlfFTDiI5tMXtV+5BeN/sc+h/mx8zb7TldR+pipaVY+Z3x+rnPt2aBqTMVOeUvjWXQ4NrmRYuIhOSAJbHFxk8+In4aHXnNWZwpyzSlLq2zrxsZLcJfiK3XU7VHY5GEpXtO+zOnTqJGMvbUNiY7lKqolxUZFtxNlfEQcRBUmJkXNCc0BVNXRVGFpF91cmqam9GkeeOpdP8AChsQxNWdOm3BXZdwpro/qU4rC1K9JwWl/E67QzTPRxdWrU9zWCsndbs33MND2fVpzTfDil3TbZroNoSgxBZisybQtATHZial4DaCiC4NS6CtLoNoKDIsGpdBNS6DaCiZGWiJe90ZGSdtmLgpgqYmsq9oU3lX3NlKTlBNxyvoZpYScm1f3ZO701NFGHDhl13LcFStAV30C/gS4UxBcV/AdACwAOgWHYVx3KgsFguFwKcROVOm5Ri5PkjLhq9eUoxnG6e7utDViKfGpuF7XM9LByjUjKTiknf3Y2uaikbEh2BDuRSyjsO6AgVgsSs+6/QahN7QfoLgQsKxcqNR/kY1QnzsvqS4FFgymjgdZxQuHBb1PRE2haZnEx4p1I1oOOqtpG9rs6bjRX5pMi44fNmyXfV7jeCnPw06tSdp5bW5O5ryli4MfhpRXkPPDuIk5lKrBlLeJDuRDix7kfQm60qsPKW8WPcj6BxYfLj6F3SleUMpbxYdxBxKfcQ3KV5QsWcSn3Qz0+g3KQsFieemGemN4KcutXqUa9RKcbyaabb0XSxrwMpSpylKaleTas728C9RoXbyq73dtwiqML5Eo3d3Zbl8kGqYyOePUM0eo8kJqlcLkbrqg+pd4NUrhchqGo3g1SuKTFqElZatCc4KVp6sjDdsJzS2FGaS3XqZw92srXscyaanJOeZ5nz2N7qLqvUx1oRjNuL+JttHZeP2jhtK8TpxZy6LtWizfGpoIXl9rrlWI/yp+THxV1RVWmnTkrrZmocZcrkdXCL9jC3Q5R0sJO1CF+h15PTOLaiSKFVXVepLirqvU4trguVcWPeXqHFj1XqQWiexXxY96PqHFj3l6gY6z4VaUo1ZZ27tJNr6ovwTbjJ5k7vZcvUjOnTlUzqbi3vaW5ZBwgrKS+rKNAFfFj3o+ouLHvR9SC0Crix70fUONHvx9RYtGU8aHfj6hxo9+PqBaFyrjR78fUONHvx9QLbgVcaHfj6hxod+PqBaZMQ06ts9SLSu8r0LuNDvx9SmrGjVd5OLa/eAhg5U5VG4zqOTX52brmWDowtlcFbTdFnHh34+oF4rlPHh34+oceHfj6gX3Ao48O/H1DtEO/H1AuuO5n7RDvx9R8eHfiBfcVyjtEO+g7RDvoC8Cjjw76Djx7y9AKsbOCnGMoRba3k7Ijg5RVVx4cE7fFB3RbOrTkrSafmhRqUo7NLyQsakx3M3aId77B2mHe+wsabhczdph3vsHaYd77MWNNwuZu0w732Y+0QfN/wsWNFwuZ+PHq/4WPjLq/RixfcLlHG8/QXG/wB3oLF9zHiaFSVbiUnHWOV5i3jf7vQXF8JegsZvw2OWKz6pWem4GpVfCX8ICylzw9l8TOXX+J+Z2qubI8u5w6r1M09HD/qzCU705PXcrxKtP6EqM6yovhwur8yqo6jd6is7Hfiju3n5ZRw6vX+htjRzczDRlKNa8Vd22NVOtXv/AJVxyRcsRlUNUMP4v1J8DxfqUxxFf5A+01/ksxou7P7Rp5Ix53Zipq9SK8TTjas6mVThlt9zLF5ZKVr2Z2iKxZvt1FSzMtjh11fqY6WKl8qRqji2v9GRx0lraFvZ14+odnXj6kVjP+1ITxq+XL0JpJvByw6yu9/U4slbQ608arf5cjlVPjfmdeOKZmbbcJTTo38TTCgn1MFDFRpwyyT3NlLHU/H0OeWM21tC5YVvZtfUsjhtN36kFjqXO5NY6j4+hNJNoS7N4v1Ds/i/USxtJ7N+g5YylF2ldeaGhtA7P4v1E8Pfm/UXbqPefoHbaPV+g0ldoDoNc36heUNiMsbR7xB4ul3jM8drGcL415LkyXaWZe10u8Ha6XeMeGWt4aHXk9kRdWfR+hS8XS7wu10u8PCbwudSfRhxJ9GU9qpd9B2ml30PEbwu4s+gcWXRlPaKXfQu0Uu+h4jeF3GkHGZRxqffQcel30TxG8NHHYcczcal30LjU++h4pN4auN5BxkZeNT76Di0++h4pN4auMvAOKvAycan30HGp99DxSu8NfFj0Dix6Iy8an30HGp99E8Um8NfEj0QcSPRGTi0++hcWHfQ8Um8NnFj0Q+LHojFxYd9eocaHfXqPHJtDcqkO6h8SHdRg40O+vUONDvr1HjyNodDPT7iByov8iOfx4d9eo1Xh30NMjaG18F/kQrUe4jHx4d9eoceHfXqPHkbQ1/se4vQalTW0UY+PDvr1Dj0++vUePI2ht4sF+UfHS5Iw8an316hxqXeXqPHJtDd2m3Qi8U+pj49Lvx9Q49Pvx9R4pTaGp4mT5sg60n1KOPT78fUXHp9+PqXxG8LnObFml1KuNT78fUONT78fU14zdO76hr1Ical34+ocal34+pfGm6WvULPqR49L5kfUfHpfMj6l8ZuLS6hZi49L5iDj0fmRHjN0tQVyLxFFfnX0DtFLvoeNN4SAh2mj30LtNF/nQ8a7wt9Q9SvtNH5iDtFHvoeP+G6y3iw+rK+0Ue+h9oo/MRPH/DdP6saV/zFfaKXfQdoo/MiPH/Ddbkfe+wZX3l6FfaKXzIi7RS+Yh4/4brbPqg95dCrtFL5iDtFL5iJ4zdZeX9sM8vEr7RS+ZH1DtFL5kR4jeFmeXiK8n4FfaKXzI+o1XpfMj6jxG8JOkpq0kpLxHHCUvlx9BLEUvmR9SSxNL5kfU3GFJtB9io/Kj6GXE0YUnFQile+xp7VSt/mR9TNiKkakk4u6SExTpxzeSqlFSrRi0mm+ZvjhaVvgj6HPpyUasZN2S5m6OKpW/zEIi15ZqVnZKfdRCeFppfBH0DtdL5iIyxVL5iNRjLjtDlNWduh0sDRhPDxbim9d/M5s2nNtbNs24KvCFFRlJJpvc65xcMxPbesNS+XH0JLC0vlx9CpYql8xDWLo/MicdZa2hZ2Wj8uPoPstH5cfQr7XS+ZH1DtdH5kfUam0J9ko/Lj6B2Sj8uPoQ7XR+Yg7ZR+YhrJtCfZKPy4+g+y0V/px9CvtlH5iDtlH5iGsm0LOzUvlx9B9npdyPoVdso/MQdso/MQ1k2hb2el3I+gdnp9yPoVdso/MQu20fmL0Gsm0LuBT7kfQfAp9yPoUdto/MQdto9/7DWU2hfwKfdj6BwKfdj6GfttHv8A2Dt1Dv8A2Gsm0NHAp92PoHAh3UZ+3Ue/9g7dR7/2LrJtDRwKfdj6BwKfdXoZ+30e/wDYXb6PefoNZNoaOBT7q9A4FN/lXoZnj6PefoH4hR7z9BrJtDTwafdQcGHdXoZn7Qo95+gvxGj1foNZXaGvgw7qDhQ6IyfiNH94PxGl+96DSU2hr4UOiHw49EY/xGl+96B+I0+kvQaSbQ2cOPQMkeiMf4jT6S9AXtCm76SGkm0NuSPgGSJh/EYdyQfiEflzGkm0N2SIZYmH8QXy5i/EL/6UhpJvDfliGWPgYe3v5Mhdun8mQ0lN4b8sQyRMPbqnyJC7ZV+RIaSbw35YhliYO2VvkMO14j5DGhvDfliGWPQwdqxD/wBBltKtWmnmhkfJNDVdmm0R5YmKVfFJ2VFPyI8fF/JRdTZvtEWWJh42M+Ug4uM+WvUaJs3WiBg4uN7iAmps6kJqpBvZ8zh1dz0DtZ2S1PPVfiMS9fD/AK1YRxWHs3rdmfG6VF4ohlk6Xup78joOjGdJZorNbfmjWGWsuPJFy52E0rXe1jqUFGWqaZz69KSVrtvwNvsyDWHd01rzLllcsRFNN4rRtAnGT0aZTiVe5nwKqdrbkpZcr8jNrSr2rpOC8GZKCvVRt9qwm6kZKLatbQwRi8y0a1O9/Fiu3ZoQVk2aY5bborhDLTXkY8S5QXuvU4W3TpZU9rEXBdCr2bmeFvNtu/M0MWlKpQXQ4uOhkxMuSep3Wjl+1ab92aW2jOmE9pMM2Ey52mdWjTja9kcWKkpK2h3MNF8CF+gz9kLYwh4E+FB8kc/FSlC8o6FnsqpOpCbm7mNlpr4cFyQOnB7pFeIuYKVaq8XGGZ5bk2KdF0afdQuDT7sSyrszl4utUpfC7DY1hueHp9yPoQeHp9xehLCOUsNGUndsqxDau7jaSoPs1LuL0H2an3F6GXAVqlXENSd4q+h0bC5KhneEpfLj6EeyUu4jVYTQuSoZuyUu4g7JS7iI4icoJtMr9m16leUs/JaDaSoW9kpdxB2Sl3EXVvhOZVxNWFdU4vRjaSobOx0u4g7HS7qNKTyR8kYcXVlSjKUdxtJrC3sVHuIXYqPcRH2bVnXhKVR6mitoi7SVCnsVHuB2Kl3EY+11XiVTVrXOs1oLkqGTsVLu/cOxUu4V42vOjByjuWezqs6tJynvcbSawOw0e59xdhpd37myw7DaSoYuw0u6HYaXd+5saMGMrToQco7jaTWEuw0u79w7DS7v3H7Nqzr05Sqb7F9Ze6LkqGfsNLuv1F2Gl3fuZo4us8UqW0c1jrW0FyVDE8DS6fcOwUu6/Uhja06EM0Hrct9nVJ1qUpTte9hclQh2Gl3fuHYaXR+pprJqOhzY4qrLFKldWzWb8BcmsNPYaXT7h2Gl3fubMuhgxtedCN4b3tqLkqE+w0u6/UfYqXdfqHs2rOvTlOpvexssLkqGPsNLu/cOw0u79zZYLC5Khj7DS7v3H2Gj3fuRx9SdGm5QdmQ9mVqleU+I722FyVC3sVLu/cOxUe79zTUXuM49fFVqeIlCMtE+hbkqHQ7FR7n3DsVHu/c001+zRj9oTnSpynB2Y2lNYT7FR7v3Y+xUe792Z/ZdapXqS4jvltbTzOhNe6xtJrDN2Kj3fuNYKj3Puc7FYmvTryjCVkrcjsUV+yQ2k1hn7HR7v3H2Kj3fuyPtCUqdKU4O0ktDP7NrVa1aSqO6VuQ2k1hpeBo937sXYaC/J92bLCsTaV1hkWDoP8n3Y+xUe79zVYoxl40ZSW6TY2k1hDsdDur1DsVHufdmLBYitWrpTlePSx17F2lKhl7HQ7i9Q7HR7i9TLj61SjWioStFq70Nfs+TqUFOV7ta3JtK1Bdjo9z7h2Oj3V6l1dfs2cnC4mvUxEITlo99C3Kaw6HYqPc+4djo9xepqS91HN9pVqlGUXTds176E2kqGjsVHufdh2Kj3PuQ9mznVp5pu7uzXUV4sbSVDP2Kj3fuHYqPc+5z4YvEdoUHL3c9tuVzs017iLcmsM/YqPc+7DsVHu/dmoRNpXWGR4Oivy/czVqcacrQVlY6M9mc2rfMyTMy68WMbFSgqlTLJXVjVHB0bfD9ynCL9pLyNOIvGhKUd0m0WJmE5Yici7JR7v3ISwdK3w/dmTB4itVrZZyVrHUt7praXLWHGrRUKsorZMvwVGFWMnNXafUhil/iZLm9dS/2fGzbve50nL4pXbSsJRt8H3H2Oh3V6ls1+zZyaGJryxEYSl7rfQ5bSusOksHQ7iDslBfkRfT+FGL2pVqUYwlTdnfUbSVC7sdDuRH2Oj8tGf2bVnWp5pu7TOgNpNYZ+x0flofY6Py0XgNpNYZ3hKPy4h2Wh3IksY3HDylHdK6OdgcRVrVXGcrqw2kqHQ7LR+XH0F2ah3Il8V7pzPalWpSrJ05NXQuSobFhqPy4+g+zUflx9CrAydSnGUndtGqa9x+Q2kqFXZ6Hch6D7PRf+nH0OVRr1niVCU7xudikrRJclQr7PRX5I+gdno9yPoU+1Jzp04um7O5X7PnOpC83dluVqGvs9LuR9BcGj3IehejjVq1aOMcVJ5c2xLkqHT4FJ6ZI+g+z0+5H0Che2paLkqFXAp9yPoHAp9yPoWgLkqFXDpr8sQVOnyUTB7VlVhVXDckrcjVg3KUIuT1FyVC/hx6IVqfgTmvcl5M42HlV7Q1Jyt4i5KddRi9kgahHew6S90xe1VPJDh5k9dhZTZ7ngPKuhjwOZ045738TehZSpOPNoccr21OXlrRxjbz5LvyOpRXuiyjlljvoK8eqKfaUZyw3uZr35FOBjNQSqZr+IspuSQ7LoNLQCWUVhOyTb2JFeJi54epGO7WhbBng+ZJarQ5mBo1KbanGS8zqQ+EliE5xg7S0BTi9jF7ToVKtanKnFtJa2NOHg4xSasxZS7ZFarU3s7lzV014HKwuFq06knKDSFq6KkmrpAEV7oCyl1CrnqThlaUTkYhWrTXRs7dGk6cW56ye5yvaNNwxLlbSWtyO3FPdHgpLJKL6m6nHMtTkU5uMvd56HYgnGAhOT2JUYclYnTgoqyMlXEyp3vqjRhKvGw8anUOa10oPVq7I5IxeiKa1acG7EcLi+PVlC1squEWVKSnuVrDQzbFtWTjsZXjstRQcdW7bFsbVG+jJRoUt3r5kZPKmZ6mN4XxL0FjZljFWirIiyGHrKvRVRbMsZBBlNWlxNHsXsrqSyra4GaOBhdGyEbJJcjJLGxi7Nas2J+7cofZaUvj94mqcYaRM0sWqfxLQsw+IjiIuUdkBa6EZ/ExRw9KnrHcrq1+HurlcMbCpUVNfE+Q6GhxzaXsQeFpPdX8yU5ZVczzxsIfFoBflUVZbFUqEZu8nfwJwmqkFNbMrnXUHqiBxpRh8KSJFVLEQrSag723LQBiANgquVCM/i1JQpRp/CkvJEZV4weoUq8KzeR3sESlDPzsQ7NTTvZX62LJzyLUq7XTvZySfS4FrWliuWHjP4rMt5XKpYiEPidgJQpRppqKST6BKnn0voFKrGqm4O6Q5zUNwKlhYKV0op9bFrTfMrWKpOWXMr9Llz0ApeGjLWVpeZOFONNWikiMsRCPxOxKnUjVTcXdICQDsFgEVSw8Jv30n5lrKpV4R+J28wJU6UaSaikl4BOGfS+gU6saqbg00ug5zUFqBUsLTjLMoxv1sXNFXaaV7Zlfa1y1gVSw0J6zSfmSp0o01aKSXgKVeEPidvMdOrGqm4O6QBOGfS9kQWFpxd1GKfW2pZOagrsr7VSbtnV+lwLbaFMsNGo7ys/MuKpYinF2k7eZRKlRjSVopLyJkadWNW+R3S5kwEIkICuVCM3eWq6DhRjTd4pJeAp1oU/idl4hTrwqu0JJ+TIJuOZWK3hab3UW/IsnLJFyaenQqeLop2c0n0bKLUsqS6ClSjP4tSSd0muZXUrwpXzuwDjRjB3jZEmrqxXSxFOrK0JX8iyTyq4EeBTe6T+hNRyqyKXjKMXaU0muTZbCWaN0ApUlN+9ZgqUIu6SQqlaNL49F1IU8TTqO0JKT8GBcIYAIHBS3GRnNQV3sBB4dcRSTSiltbmWFMcXRnLLGab6Jl4EeDCTvJJ+Y4wUPh9CqeJp03aclHzZOlVjVV4O66gScVLRkeBT6RT62HKWRXexUsZRk7KabfJMC+1lYi6MZO8kn5oad0mV1MRTpO02o+bAnGnGDvFJeQ2rqxCnWhV+B38mTk7K4Eez01+VehJKysU9so3tnjfa1y6LzK6ABDACEloc3EK1SS6M6ctEcutrOXiyO3F7W4JfEzcoKSs9jHgtE/FmtyUI5nsisZ/ZJYemtVFJ+CG42ViqOKpSlljNN9Ey5O6uGGarhYzlmaTJUqCpv3R1cRTpStOSi/ElTqxqWcHdAWWurMSw9K98sb9bA3lVypYyi3lU1fpcC9Ryq1xSpxn8ST8wjLMrohVrQpWztK/VgTVKEfhSXkSKoYiFT4HfyLAGACAHFSVmLg090kmEpZY3ZVHF0pSyxkm+iYF9raCdOMneSTEndXK6uIhSdpu3mBaqcY/DoNq+hVCvGok4u6fMsbsrgLhU+i9CSiorRmdYyk5ZVJX6XLoyzK4DcYy+IOHBbKzK61aNFJzdkyNPEwqfA7gXi4cHq0gTM88ZShUcJSSaA0ZVHYCEamfYkADQrDQDyxe4ZIrYoxGJhh2s7tcdOvGok46pgXDyR6EeRljj6TnkT97oBrypbBZPchCebwIYmvHDwUpbNgX5YdBGelio1o3hqmXoCVo80ForbQxzx0IVnSfxXtsX05uQFunMLR8CrEVVRpOo9kU0MYq6vBAa3bkISd0MBgIUnaLfRXAmrdBacjDQx6rNqKat1NcG2rsCasN26GTG4rsqi2m1LoOlWdRJ9QNLC66CRgjjnKvKllaadgOhp0QFCk2rgLHRZTXw/GteKdupc2hOStuGu3NnglxI67O+hucW42Suw0uSTsSCbZKuClO+bS/Quw9JUaMacdkWuQkwiith51NErJ8yOGwiw85Tu25KxrcvEi2KFFaMpfCrmbsTlVjOTejubrjuAp6oy1cHUrJ30RrTJqb6gVYejwKEafTqTY27iYEWVVldWLQA588FKpNNuyT6HQStBLorDuNMDFWw8691FNLqy/A4Z4ak4Sd2zUpibuEZ69OU7qMW2ZcNgKlPEqrJ/Y6kZ20CU2xQoqq8Tn4nBVK8lbRHVTsx5xQz0qfDoxg90jNXpSqXUVqbW7seYK53s/CTw825tO65I3WG2IILCa0GAVhxNKVVNRWo/Z2Glh4yU92jfcTYoUV1dHOlga1TEqpokup2FboO66IIrktDnYyhUrRcYLfmdQd10QGH2dQlQouM7XuWYhNqyNL1BWXJFHFo4Kr2viOyje51prRll1ySFvuBycbh6leNqa5mv2fRlQoOE97mxNLkhNkCCwABGS0OdjsPUrxy01rc6ZLTogMHs3DzoUHGe7ZdiF7uiuaG10Erc0UcWlgq6xaqu2XNfc7DWhN5eiIgczH4epXjlprmX+zaEqFBxnve5t06IHbkgM9dXicylgayxSqySy5r7nasuauP3eiIK2tDnY7D1K9lTWt7nTHp0RRi9nUJ0KTjO1276Gsk7ckICIDADBj6Eq9Nwp73F7Lw1TDuaqc9rHRVuiB26AV1F7pyK/s+vUxDnFLK3zZ29OauSuuiAqgrQSMftChOtTcYL3mb2NW6IDmezMLVw85cRKz2szfNe6yxtdEJWvsBxMT7Pr1q8pxSyvqzr0Y2pRT3Lsy7qIu3SwGPH0ZVqUoQ3aM/s7BVcPVcqlrNW0Z1E0uQ21bZAQsFhgAinEwc6Tit2mi4kn4AcbCYCtQrxqTy5V0OuSbXRCA5ftDB1cRUi6drK97mn2fQlQoqE/iV9vM2JpLZA2ugFVVe4cjD+z8RTxEJySyxd9ztqw7rogIRXuo5/tPDTr5VTWqfM6TBNdEBg9mYedCDjUSu3fQ2TXussbXREQOJL2fiHiHUsrOV9/E7NNWiWXXQi34AIAACMldHJr0ayxDnCN01bc7BFpdAMmDg4r3lrzL60XKjKKV20TUUnexNWA4+EwNajXjOaVl4nXivdRO66CYHN9pYSpiJxdO2nVluAozoUlCas0bU10B26ARkrxZx44CvHEqo0rZr7naHddAK6a90ze0cPPEUlGFr3NjtyBO3IDn4DC1MOmqltXfQ3km10IgMQABCtDPRlFc0c3C4CtQrZ5WatyZ1kx38AIRXuoxe0sLUxOXJa66m9sEwMWBozoU1Ce6NjWhK66CuByF7PrLE8X3ct77nUpK0dSxNdAbQGTH0JYijkja9+ZTgsJUw6anZ3fI6CY7+AEVsc3F+z6lbEupFxtfmdNsaYFFGDikpblpK5FgAAAGTH4OWKy5ZJW6ksLh5UIKMrO3NGpMdwEc2Ps6ccRxc6a6WOlceYCunHKrMqxuGeJpKCdne9zS3cSYGPCYSWHgot5vobEPMJsDBV9nOpinWU7a3tY2U4OOjLFIMwFWIpcajKne1ynDYJ4dWUs30NVyWYCKVkA27iAAavFrqrAAGSj7PVGTlGTd+pqUWlYlmBsDPisLHFRipNrL0JUsPwkknexbceYBGWOBgq0qqbu2arhcCCg0rATcvECUJVqEKs8zk07cmVPCU+/L1OX+LV+5D0Yfi9b5cPua1bjkmHTWEh8yXqPsq+ZJHM/F6nyo+rD8XqfKj6jU8kuk8J/3ZAsM1tWkc5e15c6S9R/i7t/lf8A2Gq+WXQeHnyrMToVfnswfi7+T/8AYPxf/s//AGJqeSW7g1vnMOFX+cYvxdfJf8Qfi6+S/wCIankltVPEfNQ8uJX+ojD+ML5L/iD8YjzpP+IayeRutil+eIf4rvRMP4xH5T/iH+Lx+U/UayeRsviusQcsT0iZ4e0ozfwNfUu7SujGsnkj8Sz4lcosOLie5Ej2ldGPtMejGsm8fifGxPy16k6VatKXvwsintMfEaxMfEayTnH42qWhCtUlCN4xzPoZu1R8Q7TF82KliJg+1VfksXaqvymLtEfEO0Q6ipb3x/D7XPnRkLtkvlS9A48OouPDqKk2x/D7Y/lSGsY+dORHjwDjQ6ipNsfxLti7kg7au5IjxodQ40OoqTbH8S7bHusO20+jI8Wn1HxKfUVJeH4l22n4h22n4keJT6oXEp9UKkvBPttPq/QfbaXVlfEpdUPNT8PQVJeCfbKXV+gdspdSvNT8PQG6f7oqS8FnbKXeDtdLvFd6f7voH7PnlFSXgs7XStfNp5B2ul3iv9n0XoL9n+76CpLwW9rpd4faqXeKbU+i9AtT6RFSXgu7VS7wdqpd8zylQi7ScE/EWfDd6AqT4NPaqXfQdppd9GbNh+9T+wXw/Wn9h2fBp7TS76DtNLvoz3w/WmL/AA/Wn6odnwae0Uu+g7RS76M3+H60/sH+H60/Udnwae0Uu+g7RT76MtsP1p+of4frT9R2fBq7RT76F2in30Zv8N1p+of4frT9R2fFq49PvoXHp99GZvDd6HqGbDLTNT9R2fFp49PvofGp99epkvhu9D1C+G70PUdnxa+NT769Q41Pvr1Mn+G70P4h2w/eh/EOz4tXGp9+PqHGha+Zepkth+9D+IGsP3ofxDsrFr41Pvx9Rcen34+ply4bvQ/iDLh+9D+IdlYNfGp9+PqHGp9+PqY8uG70P4gy4fvQ/iHZWDZxod+PqLjU+/H1MmXDd6H8QsuG70P4h2Vg2can34+oOtT78fUx5cN34fxCthe/D+IdlYNvGp9+PqHGp9+PqYbYbvx/iHF4aLvnh9ZXHZ8G3i0+/H1Diw78fUy8TD96l9gzYa981L1QpPi1cWHfj6hxYd+PqY5dml+amvKSQsmG78f4x2tYtvFh34+ocWHfj6mLJhu9H+MMmH70f4x2Vi28WHfj6hxYd+PqYsmH70f4wyYfvR/iIVi28WHfj6hxYd+PqYsmH70f4wyYfvR/jL2Vi28WHfj6hxYd+PqYsmH78f4xZMP34/xgrFu4sO/H1FxYd+PqYsuH78f4hZcP8yP8Q7KwbuLDvR9Q4kO9H1MOXDfMj/GFsP8AMj/EOysG7iQ7y9Q4kO8vUw5cP34/xBkw/fj/ABArFs4sO/H1HxYd5epiyUO9H+IeSh3l/ECsW3iRW8kvqHFh316mSKor80f4hOFB84/xArFs4sO8vUOJDvL1MXDo95fxBkodV/ECsW3iQ7y9Q4ke8vUxZKHeX8QZKHeX8QKxbeLDvL1Diw7y9TDlod5fxBlod5fxArFu4sO8vUOLDvL1MSdFQcc0bP8AeI2w/fj/ABArFv4sO8vUXFh3o+pgth++v4gth+/H+IFYt/Fh3l6hxYd5ephtQ70f4h5aHWP8Q7KxbeLDvL1GqkXtJephy0Osf4gy0Osf4h2Vi3cWHeXqLiw769THlodY+oZaH7vqCsW9STWgXMsKsIRspK3mS7RDvx9QxK51YRdnJJi49Pvx9TNOdGbu3FvzI3ofueo7ajVtU01dO6IutBOzkkyiNenGNlKKXmJ4ik95w+rDPTVmVrkHXpp2ckijtVJf6kfUhUr0J/FODBFf609opd9C7TS76MefDd6AcTC96AqWvg2dppd9B2ql30ZOLhu9AOLhu9AVK/Br7VR76DtdLvoycbDd6HoPjYbvQFSfBq7XS732F2ul3zOsRh1tOCF2jD96AqUvFrjiqcpZVLViliqcXZ3T8jMsVh0754+gPGUHvUiKkvFf22l1foHbaXV+hn7Vh+/H0F2zD99egqVvBp7bS8fQO20+kvQzPG4fv/YO3UO99hUl4tHbYdJP6B22Hdl6Gbt9DvP0F+IUVzl6CpNsfxq7bHuS9A7au5P0Mv4hR/e9A/EKP73oKk2x/Grtn/bn6C7Zf/TkZvxGj+96B+IUesvQVJtj+NPbH8qQdrl8qRnXtCj1foL8Ro9ZegqTbH8ae1y+TIO1T+TIzfiNH970D8QpfvegqTbH8ae1T+TIDN+I0v3vQBRtj+OaDGI6OIAAAAGACYhsQAAgAYgAgYCGUX4d6nQWyObRep0oO8ShiGACAAAAAQDFcBMgYXEBQwuIVwJXC5G4XAkFwABDuIAHcaZENgJ3C9loRuK4E7+I0QRK4ErhcjcE+rKJeYNkb3E2EZsbTcoqUb3Rhu+p1pao52Jo8OTkvh/QzKqsz6hmfUQEDzPqwzPqxAA8z6sMz6sQAPM+rC76sQAO76iu+oAAXfULvqwAAu+oXfUBAO76sLvqwEA7vqwu+rEADu+rC76sQAO76sLvqIAHd9Qu+ogAd/EQAAAAAAXAAC4XEADv4hfxEADv4hd9RAA7vqFxAA7hd9RAA7sQAA7gIAAdxAA7hcQAO4XYgAdwuIAHfxC76iAB3C4gAYCABgIAGAgAYCABgAAAAABcAAAAAAAAAAAAAAAAAAAAAAAAAAAAAAAAAAAAAAAAAAAAAAAAAAAACwAA0ECGBAAxrYGURYiTFYgQiVhWAQDsFgEBKwWAlT0aOlRd4HNhudHDSvGxRaDGxAKwDEAhDEQAgAAEAAAAACAGICSY7kATKLAIpjzAADEADAQAtx3EADC7EADEAAF7EZxUk7kmIDn1aLg21qv0KjpSVzNUopu60IMwE3TkuRFpogQBYLAAAAAAAAAAAAAAAAAACGACAYgAAAAAAAAEADEAAAAAAAAAAAAAAAAAAAAAAAAAAAAAAAAAAAAAAAAAAAAAAAAAAAAAAAAAAAAAAAAADAQwAAAAAAAAAAAAAAAAAAAAAAAAAAAAAAAAAAAAAAAAAAAAAAAAAAAAsAFohsDQAAAGIYrFAIYECCwDAQDAoVh2AAHHc24ZmJbmvDP3gNgKI0iaiQV2ItFrRBoCDEyTIsgQhsQCAAABDEwAQMAABAwC40yIXAmpDTK7hcotAgpErgMAABDAQDAQAAAwAjIg1dljFYgpcfAi4FzQsoGdwI5PA0ZQygZcgZDRkE4gZ8oZWaMoOAGbKwyvoaMgZCDNZhlfQ0umun0B0wM1n0C3gaeGGRAZbB9DVkXQMiAy69GLXoasmg+HqBkDXoasmqshqmnyAyBZmvha3Gqa6AY7PoFn0NnDXQeTlYDFlfQMsuhtycx8P/2BiyS6BkfQ3cO2vIOF4AYcr6MMr6G5Uh8NWuBgyvoxZX0Z0FS26deQ+EugHOyvox5JW2Z0eFZ2a9RqktkgOcqcnyYcKfdZ0VTVmN019Cjm8KfQOHPuv0Olw2rabjVP16WA5nCn3WHCnbY6nDuLh2WoHLyyXJisdbg9VoLs8XukKHKEdR4WEt4kHgoPrYUOcBtlgX+WVvAqlhZx5X6WIM4E3SmnZxYnFp6gRAbQAAAACAAABgIBiAYCABgIAGAhgAAAAAAAAAAAAAAAAAAAAAAAAAAAAAAAAAAAAAAAAAAAAAAAAAAMBAMQAAwAtEMDYQIYAADsAQhDAKQAAAAAAAAANF9CXvFBZSfvAdSGqTLEVUXeKL0iBNEGi6xFoClxINFzRBxAqZFljRBogiIYgAVwEACGIBiYCAYgAAC4CAkh3IXGBJSJKRXcCi24EMwZgJgRuSTAAAAAQxAFhWJCtcBW1E0SBgQsKxZYViCu3QdvIm0FgIWDKTC2oEUuorWLORG12BGwW5kkh21AhZiyqxZbmCWgEMuvQMvh9CxL++QW0ArcdOtvVDt018SbXULbfqBG1m3tcFG3gTta+mwW1sBDKrL9GPLdWt9OZK3pvYOj6ARt4X0vfmPLz57XJc/L6Ba6vf6sBW3a01+jBR0sPbW3K+on468tQHpppf8Al9fUFHx0Wl0PXnuPTW/P+/0Ajbe2j6/34oastVs9fB8/5hf3k9n/AH/MErLwX9/zAMmi6c/0/oO109LvfxX92C2jT05Xeo9ee9+b/vxAWilfdb33f92Y8qilfRrf9NvQd0n4J+St/wCmNaqz2ej6dP6FCy2vHZ9Htf8A9oeystuSfqEW3Zrnr4f3dDTWiWtltt4r+YCsl10+jt/6YKO9+vxLR9ATX0S5br+0wje+ujatffX/ANoB8r7X58tf+RJdLdbbp8/6jk7tvn0evj/UOdnt0f8AfRgCXK23J7q3/sSW1+Wl+fQa5KWq2108As99r81py/4AWW+mivt0/vQHG9v0C6bukrvW2/iPbTp46oCDgmr6Mi6MXplLud/uhWtZZfppryAz9nh3UQeFh3TW7W3+vQLdEutiDC8JB8rFM8HJfCzpW/8AZFx6gcqVCcd0QyS6M68oXdiuVJdBQ5jg1yFZnTdKO9rkeFHoQc6wHR4MegcCPQtDmjN8sPFp6EOzRvsQYhm14aLfKxHskQMgGvsi6ilhfEDKBpeFZHsz5MCgC14eQuDICsCbpSQcKQEAJcOQcOXQCIEuHLoLJLoAgHll0YrNcgAAAAAAAAAAAAAAAAAAAAAAAAAAAAAAAAAAAAA0TjZ2Il8438yixsAANANAwQ2VEREiJFIAABDAAAAABkofEQJR3A6mEd4muKMOCkrW5m+JA7CaJ2CwRU0Rki1oi0FUSRXKJocSEogZ2tSNi6USDiBWyJOSIEAACABMYmACGIAENiAYAIBgILgMYgAlcLkRgSzDUkVbjTAtuBXcMxRZcCGYeYCQCuFwGArhcBsAAAsL0HcVwHa4O9gTDQAtcYrhyAH4/cOeoXBbAO36cw3YriuBLl99AXReWn9SN9PoO+uoDbX31sK/u2+vgLMF9PoBK+nnzC/6kbivrp15ATvt9dWJyt525kb7AwJ3u2F9bkE+fiF+vQCafT7BqtFv4f1Fe9wvr9QJLp+gJq9+vQjd+LE3pr0Asi7W8FrYNb25+H9SDb1u7hmvbz8gLG1rp/NjzaXeltLsgpWWnXloJO1rfYCbl/S72/u4812nut9dv73IN28Hz5gnZ7ar6sCy99N16Du9359P71RB2vqNy2el789f71AnotUtN7LRf3ZiT0t00fLw/oK+1/v0/wDQvPnzYEk207P6pf3zQ2/eb0v635kU29dWrX6LqNcle6StZAG26dttXYe/2s4r6C87J9d3f+0N7bN776eICV+drvq99AXwvS/gltzDRLRaLXRfUbtm1f1uA82t7+TvuL6bbq9/QEraL6rYLpp6pr7oB8/5/wBRctmg1vfrztuD56bcugCXl9AaQ9PD+oPxYEbJkXDoWW1F+n6gQUOgZfJk+QrMCGX/AIDKTsAEMruLKTtoP6AV2Bx1J76gEV2DL/7LGhW0Cq+H4X8BOCfIta0FYIpdPXYMhdYLeH0Iqjh+AsnU0WE1pt5IDPw0Phl2S/S4ZdL8v1Ao4fkLhpovceqQZbcv+QM7pR5pEeDHoaXHy/oGX++oGZ0Y9ERdCPQ1Zbfy8Ayen6gZOAhPD9DZl1/vQMqutPIUMXA87hwPE2ZV/UMum2r28AMfA8SPBlfc25F9P1Fk1t6gYnSmrabicJLkbsvhqxZFa9rrkhQwWfQDc6af8yDpLu+RBkA0cBfRL7i4HL6gUAWcJ2XiDpvXQCsCfDYZGBAB5WAG5rQqmtS0UldG0UMENprRgA0DBDZRETGyL3IoEFwABD5CIAaEADGhDTKNmDlaSOtBnFw0rTR2KbukwLkFgiSIiDQmixojYoqa8CEolzItEVRKJXKJpcSuSAzTiV5TRKNyEogUsiyyUSNiCIMbEAhDsACEMAEMAAQhiAaGRACQCAAABAMAAAuFwAB3C4gAakPMQACzMPMioLgWZguV3C4Flx3KrsL9Si24XK8wKQFlxEcwmwLLiuQuFwJ3EmRuFwJX1C5G4XAlcLkbgBK4XIgBK4+RG47gSBPYjcAGpaeFhsiF9QJc/qF9hD2QB/Qbb11EP+vUAbuncavt4+Qlve1voH36ATW2/oClpZPW3Ijm69ObHsrfTTQCV1ztH7sd93ontdkE29Vz6AnqmBNu+r115jvfRXs+mhDp19Rvx5c2BNS5/V2HdLdrr1ZDffXz0HHXS+/dAk3qs2nn6DTvZq/jZWRHbVpRu+erBtNO15a6NgPRLVpc9dWhxvfnfrsmQ3bSsr9NSXJZvLUB7ckuqbBPXV+TSFe+2/Jpbjfl5psB+a81YLX8b87CdrPVW5eAW8Neem4BbTwQa9NQdrXvotg/XmAc/wC9QfV6dEHTmv1C2uu7AOe31E/t0GuSvp1Dle/kArBy/mPr9xPZP0QQrdFp0GH6g/sAC2HbW/MLAK2tuYuv93JaddOomFGv1Fb0HYP05AJ/fkFtNH5jdwt4aBEbf+gtr4j/AFGloFQa9B2ZK2l/QVuXqArfRfqFvUf08kH6gRaQrPmr9LEvoGv1Ag0vpzHb1fIen0D9WBG3oDXX6kudxcreoEba3W/IVk/JbvqTtfbn9hW26LYCOr8G/sHiltoiVtWvULaafQCNuTXmJq/myduXLdsLc+bAhZcldLYTg9vUstqnrZbCy8vqyCpxvra19gyLfki22rfXYMvK2iApyf1ZHJz6mhx5ddxNbv6IDK6eui+wGm2XTVgO0VgEWpLxCxpUJxvqVlzRVJagNAwQMqIsiyTIkCAbEFIAAgAuIYDAQyi2i7SOzh3eCOHF2Z1cDJuIG+L0JXIRLFsRAADKI2E0SEyCtq5XJFzIyQFDiVyRocSuUdQM7RBo0OJBxCs7iIucSDiQV2Ak0RYCEMAEAwAiA2KwCAYgAAAAAAAAAQDC4CAYCGAAAAIYAAAAAILDABAAwAQ7AAgGwsAgHYLAADC2oCAlYLAILXGNLUCI+Q7MdtNAI31D/wBkrf1FboAIOf1Ha2/6js9wFyBaolb+gZVe/VlC8+o1yeoLYdgF99PMPtYlblr0C238kBFb6P0Q/wC+o7bPp1Gk16eSAWyv06sdnrbX7IFv9eSG0k72fXVgG7t+g9tdI36C1stXoNdHy6AF1o9X4sFfZcug7W2S+uoNX3u/PQBNKN9Un6sd1vbTq2K+uj130Q7ZbXsurbAab6t200Qr2d0kvPUe6vq7a9AXxf0AduTzNegXWm1+q1DZra/jqPk97dNgC7WivruhX93Xa/XYWnh+pJbaJ38twBPx18w5eHW49eSf9BWa/vcA8/QN9F6h+vjyC2ltlz8QC6S8EC6W1/QNb39ECXjrzAVtA/Uf9oOfi92AW6c92HjyFdW8CWt/EBbX6hb0D66cwtf+QC2f8hvfqwtrZb9Q2CEvsAfqCWmj05sBDS9Q+nkgtZ/qwpW8Qtzew/skD5PmAnt4hb7bjtyW4uXgEHjzewrbr1Y23ut3sOy+i3CoePoOz/qO3VeQW1sERa0u/oFuXqPxt5Ctpb1YC8fQLWHyuvoD6cuYCV35sP7Qa/Vj8QqNraX8WPXf0Ha6t6hp/QIjpt03Ybq/UlZWty5g1z5hS+uiBK/PzGlbToPw6kEeV7eQNDtzCwEXr5sPpsStpcQEcvUCSAtjDGVmXJp6ozMspztuUWMhKJZuhMCpaA9iUlrcT2KiDEMQCENiIpMQwIAAAAGCAoaOhgJa2uc9GzBStMI68WWIqgWIipoCNx3CATGxAITQwKINEGiywrXAqcSDiXuOpFxAzuNyDgaHHQjKOpBmlG7IuJpcSEohWdxsKxe4akXAgpaAtcCLgBWJlmUjYCADsFgIgSsKwAIdgAQiVgAQhiABoLAAAAAAAADEMAAAGkAgGg5AILD5DAXILDsCQCsFiVtBpARtqCRJIaX9QI26Bb9CVv8AgLf8ARSGkNIdunP9QFbW6BLZXJWu+iYJddOoCS0+moraddNSS2Te638R2skui9QFZ/YT19OpO3ReQZbX6P7MCFt/6EmuX8yTj7r+/wByTjvvf+WoFdgy21fLxJuKv59WSt089uYFaVn4rwvqPK7PfTTX+/Am0+d/HWwlG7SVr+vQoVuS8lZCtza311J20Wr2t0BacvRAQcXd76ry/vcaSdttdNrksuqvbbnqNLS+rW3TUCLj1+7FZ+L+xNpJO1t7aK4W11XjdgR2t/JBa36ajeu17eCElba1wCzeze/kK3Jc+mpJrz+rHv8AX6ICLs3d6eYciVlpp6Csuq82ALb+gttGl5t3JZer9WCe9tvICPvO2/joNba+rY9ebafiwSV9F5qwC08LjsumnSwaJa7eYaJ62vyAN2u95By8ECta/qF9f0ANbq+7D+7hZ/Xz2BrTwX3AFvd/QNNuXMX3b2DdWvoA+d7ach638WHiw5W58wFp9ENPm9w0fkDWz5v7ALwfLcH19AdvoHi3ryALevMHa1+SDqk7+IXW72QB+rC+9tgu/wDyYeHJbgHK/ohfqO639AtbT1AS6L6sPG2nQH6IL31f0QQPfxeweHJA1r48wa08ADx58heHqPX1C3L1AXiK3L1Jba28hWtp6hSCz5j8fRBYBWf1Yc9tES8fQXOwQkrjtzQ7fcNPQKjYPEdvVhazAVgtz6j5WB66gHLyEtB25C5AK6uFhvoL+ZEIB6rmAVzmIYjQshNlqaaM6JKTRRa0VskpjaTCKhEpIiwIiZJiIqIDFYgYAACGAFDLaEmpoqJwdmgjuUZXgmWpmTBzzQ8jSncirExpkBoCVxXFcAAYguVDEDYrgBFjYARaIuJNgBW4icCx7BcCvIR4ZawurAUuHQTpotbt6A9bgU8JXRB0tDQxNIissqbIumanG4sisBlyPoRcdTW4kXDTYDI4hY0umQdPkBRbUXIucCLhYghYLErBbUCDQWJ2FYCA7ErCsAhhYdgIgSsFgEh2C2o0AJCsSsACSAYWALAgAAH/AH9RAAx7+F9hD16FBpy+gfzd/qFhqLAjzY1r4Esr5ksr+oEfPyY1ze/J+RJR/vqNRAjle3P9UPLorPTkyxR/48Ata/8AdvECGVPyb9GS01vs9JEktHf6/wBQfnfTXxQEdvpo/FA09VHfdabkkrW115a7odldW25eAEeemz205h57bPUk7au3PVdAa0lffn5ARas+Ts+m+w7LRa7aPYb+JK/lqFtunltsBHdN6L7g9d9//ZKz+q38UCj0fO6AitrdXpYa3v468x6fTn4Bs319AE15/poRtvbbw1sTVkvDwWzE73ea/iAmml4+PMVt7XfkPnp9GDfr4gLmrJIT8dfFktkvsw8t/ABeeniC8voge3h+gPfXV+IB6L7hv1v4j16ac1sK2i2AI2100YW11v6j5grcl9gFby9At52Brx+4NJvxCDUerf8AITfp5Ar6Pmwod9V9wT9EDW6i/MF11sAX36/oD109fEHfpqx2T5JJAK3PTwDa6tvuF9Ljtfze4Cv56AnbzYJX8ltZhe1+rAL7LoHK+ov05j3108AH4eotPTYWtv1H49ADw5v7BptyQK/1YabLZAHjzYW5L6sL63a15A+nqAb/AO1C8X9Br7IG9b215ALw9R3X0QW5L6sVvRBA+vNh4dNw8ebDTbktwoT1uD6Bzv6IfgAur9A0/qDte4eX1CF4+ga7Ia6h/MKW+o7cuQLr0AA8fQA3fggCEtdR218AvYHroFIAuMBchWGACALX5sAOYA7AVAh8hICiSGmJbDAd7kWrAAEWiJNkWRSANgIAAEUFxiABjW4gCOhgalmonQTOPhJWqI68XcirUxkCSYAMVxAO4XEICQhXBsAAVw5FAxAIB7iYNkWBJ7ivoIXIgYXEAAFwEAMAvqIBiY72I8gE9voLxG9w3AhJK1voVssl/wAkLf0AjYVv6E7foK3P6kELbDsSt9gsBG3L6Ct6smlv5A0UQS/qFidrA1/QghYGiVrjsUV2C1uRZl1Hl+wFdgy6lqhZ+THk+zswKsoZf1LsnVeA1Tv4cvqBUo/cWQ0Klz66eTJKmn9XZgZsjY1DXY1Zb6bXdn4A4Ly5PzAzZNR8M0qKtrzdmFrK78mEUKm/QeSy8vsaEub5aPyBR111tv5BVCg72fmHD/Q0ONl4rbxQmtLR5axCKlDS1r3+4Jbc7/ctty+sQstPH7MKrS/ohqPT6f0J2TtdWvv4CS3u/BgQS+i/mLLs9l+hZbe/Lfx8Qta91r57oCFtOmvox23b/wDL+o7eb09Q56P/AJQC156tb+KBJ3ST15eKGk7q30/oFrJa2XJ9AItdHZPbwY5aXdv9yH1v/wCS/mJ6Pq/1QCtayvtqvEFtto/sOSTXg/sx+MkrrdWAjd3V9/PcGrJeegdFflowfW3mugCeib08VfcVtX9tNyWv1WwrJ36P62AVt3p4q4Jbavw0Ja/X0uKysuj+tgFZcl5qwpW0u/JkvW4ktG+X6AK17v15B5aLwHYTu3/IA5+PiJX8fFDS05tA9OlwEumlgd+f6jV/G3MWnX0APK1vILvxG7873Ev7uwg1T5+oa25idvCw9ulwB32X1YJ6eAcrLbnqDfMKP5hv5INfULX8kAX5+gJctfEPH0DfRfUAbX0QWd782DV/JCV73vqwDbS/mNP/AIB21QvEB67Cdn5DE2A09PFi8BpisA+V/QFfZi8R/qwD9ELx9B+ewud/QA5WD9EGuwb+SCC/NhvovqD6sNlbm9wo8eQfqO/2F482Ac/AE/uFraB4gGnPZB4g9dAAENeHMVuQXAb0sugXEg05IASAAYAwDkABYAuACAACOYIkRNBoAGgGADACJIQCE0NiAiwQ2FiKAAAExDYAAWAALKUlGSdzsUZZoJvocRHTwVRShl5og2JkkytMmgJNhcQgGDEFwBsTEG4BcAAAYnoAAAgAA5CYNkWAwYgAfIQxXAAQCALg+gf8kW7gHIAE9gFLYT2v4XB3dxpf0IIv+Yra28bErf0DkAuX0B6DSC1/0Ajt9GJbr0JZL/VE8n9Siu1x2v6XJ5d+diSjb6foBWo/1Go636MmoWav5E1Hb0YFeW2+y0DLtfyZao31fPRjy/dW+oFaitL+TGo333e5PKm9ea+42vDfVAQUb/X9RqN+Vrr7k7a6c1f6jtdN83qvMCKV/r+oJX32ej8yVr7c9V5hZN7fF+pUJK+/PT6jy3+un1Glp4SX3GlpqtJL7gKy589GLbfyZK19+ejG78/JhUbWvfdafQLZU3u190StrrrZWfigas975fugiNunLVeKFbptuiey05aryIq+lvOIUrJpW0T1j4Bfm9no/Bk9/Ju/kyL1XTlIiIu6vm8mC59Vv4oldp23t9waaSXTVeKCotaaa9PFAuVvp/Qly02esRWv5P7MBLW1v/TFom0tP5MatrfZ7rxBJrV620fkANb3VuvgLlqteaHt42+6B30ty1TAW22r5eKFa7Wuj28B6O3JPZ9GLTW/k0APrbf4kCTt4rbTcPRtfdBZO1nZPZ9AB6J9H9mJ33e/PxBvd/RoHulfyYCtZWWzejsDe/XmrhvrbzVth62trfkBFL/h2BP/AJQ9Gn08w2slutgFy8OQm9+TX1uOyt4C5fowBWt4eIa7c10C1v5hptughaf8XDy1XIav5B/dgpc9dA9fIfQi3ryQBa7/AKsWm3uofld/QLeYQuej+w02t39gW3MPUKL8lbxC6ve3kCC6v4AFvO7B266IOer1Dw5AH7wtVpz8R+IXdrc2Ab+Qa7ieu9rIAG9HZC/QbXJCsA9vqKy2QfzAA2DwQeIPw3APEfLxYluAD8LivbYLB4gH6j/QT00C3oAeIfqPxFt5sA02HfmLwAAYbvwAOYQB+iDxDkFAAgAAAAAGAwiIDEFPyEMQQAAAc0QwNABACAkAWABAMAEJjEAthDYmQAhgFAgAAAAAZqwMss/MyFlGTjUTTsQdlPQnsU05ZkmWJgTuHkRuDAbYgAAC4BcBBcTAAvqIZFvTQBt3enML2X0Fz+or6fQB3116iX8g5/UHt6gG7+oX0+gr7/QOd/EB3Fy+gcgAG9fqK+njYLi/owB6eovDqHK/gDtd+DAL39Li8uo7Bb9AD/0LW3mStq/UaWtwIW1Go6ak4x0+xJR++oFaj9yWXoSt/UdrfqBC3P6k0ra9P0JKNr+A7a2YEMqVl00Y8qVr89GSs2xpdef6gRau16DS08yVtPuO39UBHl5q42v6/UdnuvMLNfTUBOK1tfqh5ea80C0flqS2+jAi1q7ctUO1tuWqJK0foDVr+Gv0AWXkv9yEo81z95eZLlbpqhW005e8ggav111+o7X8n9mFrLR+KDd+EtUUK12vHR+YLq7dGNpP/wAvsw3WvPRgJaJN8tGK1vFx+6JJWV2tdmuoNaW5rn1RBHV7PxXkFtLJ76xBK21uqDTws9vAKHZvbR7+DFqnd6taSH4tb6NBqr6arR+IEett1t4oGul+qBuztfZaBo7dHsAPlyT+zE3ve2ujHpq+T30DVat7b+ICd7+KWvihXt58n1Q0lfTW23igluktt0ArXSt9BO223TwJaNPo9vBiejd9ufgAm93ye/mJ3+q38UN6ef6oOdk9tgEk7JJ+MR8m7aPfwYrbW2/RjezutdmgIpO+yzLfxBvx05eA7NWXoxPrbzQA0766vn4i5b6ch89vIOe2nNALT680Fl9OTCV9NdeoafTmgDW9+ZF20tt+hPS2/kxW9QI7+Y7a3t9BD3e+oC/QN3rv5gFv7sAvKwO65v0HqJta7BAttXr5i0Dlt9gCjTwsGz5XBbDb9fICL2C635BdbaBbnyANfUfglp1Fa2ut2Pw5AHiH6sPH0Fa3mwHb0QX56i8OQXbd7gPwF+gK6uD0sADFcL8gAABAHMAAAC92IYBt5gugXBAPxYeInqw8Qg2Vg5gAB4iGACGAMAYhidgGAAAAAAAAAAILhuAWALAFc0AAqDmNC5jRQxDEAxDEACGJgIQwIEAAAchMaE0FAAAACdmAIDp4OeakvA1JmHBu2nI2p3IJgRQwB+DAAYAAguACC4gC4v6AD29QC95eFyPLxsP+qF/yA3oJcg5fQP6gJu6+g782K2lvML/oBK2omH9QSbewA1pYVidtQS0+gELWa9AUbteVidtxqOu3MCCV7vwuStbUko7LbRoaV/qtQIeXIko8vNErXXmiVtfqBC27+pJLn01DLsuuhJJaegEbfbwHb7PUe/oPdP1ASV2vRhluvNMk0ley6Ma05bMCLT9VcbVrpLxHbqr2dgUbW052YCsvQNr+D+w7aK/kDTtb6ACt02YbIertfyC3uq/kALReQ+ngCSstd1YIq9r80A7WSvydhbW/d0+hJavX8ysLe2+ujAWz8I/oPK19NfoFtF6MFsrrbRgGXkuWqC107LfVBs9tV+gnpok9NtAC176WzbeYWvq1ZS0E1080NpWtbTy5gLld+TCWi5+7+gW52t12Frpfl5bAD0VlfTVCSvpr73kNprlttoCScrbLy5gDfNp9HoRtrfmtNhvx576C1V23tpowC2iSd+a1B66W31QO+2umqE1y66p2ALaX2vuK9le+q0eo11e3S4Xd11W+vIBNPZXutVqHN8k9vMbvZ+GqFpouv2YBdNq705il5XfMG+vkweluq+4C/tC5Lo/sPy+gb68uYC2v9w10V/IevS7X3Fo/L9ADr0/QHvZ7r7h6eIaf0ALK3gK13+niN/8AsWlvAAdk9tBO4N6gvsAtED8/Jj5ePkLd8wBeX0G07NpaCt/7uD57eIAr/wBsPqguthc7318gD6if1BvzHvvcBJu2zDzTEvL7h9PuA7+DE/qCvfYNuoBYPoD3shXX0APEaQkNdAB9egba82H6B48wH4C8Q8Av05AH01YWuHjpcVvIB+IkGggG19g5hysC1AA1AAEh20EAD5+AAgAACwACDwALBDEABQAAAMQwCAAEAwAAEAAwEMBAMBAFc4OQAVASQAVQIAAcuQmAALmHIAIgFLcAAXNiQAA0DAApPcEABBzHHcAIrfh9l5mqOwABNDAADkAABGTYAAEbv7jAAhMXMACj+gNa/VgAEf6DAAG/5i//AOQAB8hrf1AAJcgXIAAP6WJL4X5IAKiT3/8AJDt//VYACkviX1G/5AAEuv0Dm/BgAAtHpyY1sl5oAAOX0B/nACCUl8X0BpXf+5ABQpc/9w3tL/cAEQ2leX0FbSXmABSfwvzJLaXg9AAIc1bPbkxz2l5AAUn+byEv/wDUAAEvhCyUY6cwACEn/wD1Bf4tvQAAFq3e23QUXeSvb0AAGktNOYSStLwAAHJWlJeHUitXG/NAAAkmo6cxSikpW5bagAQnu/EIu7i3vYACly8mSaXvgAEXy8iKfup+IAAPSL8x82AARu1YTfxIAAab0BbtcgAAktE+YNJaJIAAjf3Uw5gAA9g6gAEU9BJvqABDAAChrYAABcxAABZXAAACMtwACSSuFtAAAYLcAAOogAA5h1AAEPmAAAmAAS5EVzAAB8vMAAIBvkAAJPcYAFIfOwAAMS2AAG9wAABD5gAQgAABBIAAitx8gAAEwAKaAAIr/9k=;clipPath=inset(26% 0.67% 26% 0%);" vertex="1" parent="1">
          <mxGeometry x="210" y="160" width="1089.33" height="394.79073825503355" as="geometry" />
        </mxCell>
        <mxCell id="jLQ3n-HPN2SgbX0vu5e_-3" value="Reset" style="text;html=1;align=center;verticalAlign=middle;resizable=0;points=[];autosize=1;fontColor=#FF3333;rotation=90;fontSize=9;" vertex="1" parent="1">
          <mxGeometry x="1040" y="330" width="50" height="20" as="geometry" />
        </mxCell>
        <mxCell id="jLQ3n-HPN2SgbX0vu5e_-4" value="VCC" style="text;html=1;align=center;verticalAlign=middle;resizable=0;points=[];autosize=1;fontColor=#FF3333;rotation=90;fontSize=9;" vertex="1" parent="1">
          <mxGeometry x="925" y="330" width="40" height="20" as="geometry" />
        </mxCell>
        <mxCell id="jLQ3n-HPN2SgbX0vu5e_-5" value="GND" style="text;html=1;align=center;verticalAlign=middle;resizable=0;points=[];autosize=1;fontColor=#3399FF;rotation=90;fontSize=9;" vertex="1" parent="1">
          <mxGeometry x="905" y="330" width="40" height="20" as="geometry" />
        </mxCell>
        <mxCell id="jLQ3n-HPN2SgbX0vu5e_-8" value="D4" style="text;html=1;align=center;verticalAlign=middle;resizable=0;points=[];autosize=1;fontColor=#FFFFFF;rotation=90;fontSize=9;" vertex="1" parent="1">
          <mxGeometry x="945" y="326" width="40" height="20" as="geometry" />
        </mxCell>
        <mxCell id="jLQ3n-HPN2SgbX0vu5e_-9" value="D3" style="text;html=1;align=center;verticalAlign=middle;resizable=0;points=[];autosize=1;fontColor=#FFFFFF;rotation=90;fontSize=9;" vertex="1" parent="1">
          <mxGeometry x="965" y="326" width="40" height="20" as="geometry" />
        </mxCell>
        <mxCell id="jLQ3n-HPN2SgbX0vu5e_-10" value="D2" style="text;html=1;align=center;verticalAlign=middle;resizable=0;points=[];autosize=1;fontColor=#FFFFFF;rotation=90;fontSize=9;" vertex="1" parent="1">
          <mxGeometry x="985" y="326" width="40" height="20" as="geometry" />
        </mxCell>
        <mxCell id="jLQ3n-HPN2SgbX0vu5e_-12" value="CLK" style="text;html=1;align=center;verticalAlign=middle;resizable=0;points=[];autosize=1;fontColor=#66FF66;rotation=90;fontSize=9;" vertex="1" parent="1">
          <mxGeometry x="885" y="330" width="40" height="20" as="geometry" />
        </mxCell>
        <mxCell id="jLQ3n-HPN2SgbX0vu5e_-13" value="CLK" style="text;html=1;align=center;verticalAlign=middle;resizable=0;points=[];autosize=1;fontColor=#66FF66;rotation=90;fontSize=9;" vertex="1" parent="1">
          <mxGeometry x="865" y="330" width="40" height="20" as="geometry" />
        </mxCell>
        <mxCell id="jLQ3n-HPN2SgbX0vu5e_-16" value="D5" style="text;html=1;align=center;verticalAlign=middle;resizable=0;points=[];autosize=1;fontColor=#FFFFFF;rotation=90;fontSize=9;" vertex="1" parent="1">
          <mxGeometry x="845" y="326" width="40" height="20" as="geometry" />
        </mxCell>
        <mxCell id="jLQ3n-HPN2SgbX0vu5e_-17" value="D6" style="text;html=1;align=center;verticalAlign=middle;resizable=0;points=[];autosize=1;fontColor=#FFFFFF;rotation=90;fontSize=9;" vertex="1" parent="1">
          <mxGeometry x="825" y="326" width="40" height="20" as="geometry" />
        </mxCell>
        <mxCell id="jLQ3n-HPN2SgbX0vu5e_-18" value="D7" style="text;html=1;align=center;verticalAlign=middle;resizable=0;points=[];autosize=1;fontColor=#FFFFFF;rotation=90;fontSize=9;" vertex="1" parent="1">
          <mxGeometry x="805" y="326" width="40" height="20" as="geometry" />
        </mxCell>
        <mxCell id="jLQ3n-HPN2SgbX0vu5e_-19" value="D8" style="text;html=1;align=center;verticalAlign=middle;resizable=0;points=[];autosize=1;fontColor=#FFFFFF;rotation=90;fontSize=9;" vertex="1" parent="1">
          <mxGeometry x="785" y="326" width="40" height="20" as="geometry" />
        </mxCell>
        <mxCell id="jLQ3n-HPN2SgbX0vu5e_-20" value="D9" style="text;html=1;align=center;verticalAlign=middle;resizable=0;points=[];autosize=1;fontColor=#FFFFFF;rotation=90;fontSize=9;" vertex="1" parent="1">
          <mxGeometry x="785" y="360" width="40" height="20" as="geometry" />
        </mxCell>
        <mxCell id="jLQ3n-HPN2SgbX0vu5e_-21" value="D10" style="text;html=1;align=center;verticalAlign=middle;resizable=0;points=[];autosize=1;fontColor=#FFFFFF;rotation=90;fontSize=9;" vertex="1" parent="1">
          <mxGeometry x="805" y="360" width="40" height="20" as="geometry" />
        </mxCell>
        <mxCell id="jLQ3n-HPN2SgbX0vu5e_-22" value="D11" style="text;html=1;align=center;verticalAlign=middle;resizable=0;points=[];autosize=1;fontColor=#FFFFFF;rotation=90;fontSize=9;" vertex="1" parent="1">
          <mxGeometry x="825" y="360" width="40" height="20" as="geometry" />
        </mxCell>
        <mxCell id="jLQ3n-HPN2SgbX0vu5e_-23" value="D12" style="text;html=1;align=center;verticalAlign=middle;resizable=0;points=[];autosize=1;fontColor=#FFFFFF;rotation=90;fontSize=9;" vertex="1" parent="1">
          <mxGeometry x="845" y="360" width="40" height="20" as="geometry" />
        </mxCell>
        <mxCell id="jLQ3n-HPN2SgbX0vu5e_-24" value="D13" style="text;html=1;align=center;verticalAlign=middle;resizable=0;points=[];autosize=1;fontColor=#FFFFFF;rotation=90;fontSize=9;" vertex="1" parent="1">
          <mxGeometry x="865" y="360" width="40" height="20" as="geometry" />
        </mxCell>
        <mxCell id="jLQ3n-HPN2SgbX0vu5e_-25" value="GND" style="text;html=1;align=center;verticalAlign=middle;resizable=0;points=[];autosize=1;fontColor=#3399FF;rotation=90;fontSize=9;" vertex="1" parent="1">
          <mxGeometry x="925" y="360" width="40" height="20" as="geometry" />
        </mxCell>
        <mxCell id="jLQ3n-HPN2SgbX0vu5e_-26" value="AVCC" style="text;html=1;align=center;verticalAlign=middle;resizable=0;points=[];autosize=1;fontColor=#FF3333;rotation=90;fontSize=9;" vertex="1" parent="1">
          <mxGeometry x="880" y="360" width="50" height="20" as="geometry" />
        </mxCell>
        <mxCell id="jLQ3n-HPN2SgbX0vu5e_-27" value="AREF" style="text;html=1;align=center;verticalAlign=middle;resizable=0;points=[];autosize=1;fontColor=#FF3333;rotation=90;fontSize=9;" vertex="1" parent="1">
          <mxGeometry x="905" y="360" width="40" height="20" as="geometry" />
        </mxCell>
        <mxCell id="jLQ3n-HPN2SgbX0vu5e_-29" value="D9" style="text;html=1;align=center;verticalAlign=middle;resizable=0;points=[];autosize=1;fontColor=#FFFFFF;rotation=0;fontSize=9;" vertex="1" parent="1">
          <mxGeometry x="410" y="350" width="40" height="20" as="geometry" />
        </mxCell>
        <mxCell id="jLQ3n-HPN2SgbX0vu5e_-30" value="D10" style="text;html=1;align=center;verticalAlign=middle;resizable=0;points=[];autosize=1;fontColor=#FFFFFF;rotation=0;fontSize=9;" vertex="1" parent="1">
          <mxGeometry x="590" y="346" width="40" height="20" as="geometry" />
        </mxCell>
        <mxCell id="jLQ3n-HPN2SgbX0vu5e_-31" value="D11" style="text;html=1;align=center;verticalAlign=middle;resizable=0;points=[];autosize=1;fontColor=#FFFFFF;rotation=0;fontSize=9;" vertex="1" parent="1">
          <mxGeometry x="530" y="347.4" width="40" height="20" as="geometry" />
        </mxCell>
        <mxCell id="jLQ3n-HPN2SgbX0vu5e_-32" value="D12" style="text;html=1;align=center;verticalAlign=middle;resizable=0;points=[];autosize=1;fontColor=#FFFFFF;rotation=0;fontSize=9;" vertex="1" parent="1">
          <mxGeometry x="470" y="347.4" width="40" height="20" as="geometry" />
        </mxCell>
        <mxCell id="jLQ3n-HPN2SgbX0vu5e_-33" value="D13" style="text;html=1;align=center;verticalAlign=middle;resizable=0;points=[];autosize=1;fontColor=#FFFFFF;rotation=0;fontSize=9;" vertex="1" parent="1">
          <mxGeometry x="360" y="350" width="40" height="20" as="geometry" />
        </mxCell>
        <mxCell id="jLQ3n-HPN2SgbX0vu5e_-34" value="D8" style="text;html=1;align=center;verticalAlign=middle;resizable=0;points=[];autosize=1;fontColor=#FFFFFF;rotation=2;fontSize=9;" vertex="1" parent="1">
          <mxGeometry x="290" y="410" width="40" height="20" as="geometry" />
        </mxCell>
        <mxCell id="jLQ3n-HPN2SgbX0vu5e_-35" value="D2" style="text;html=1;align=center;verticalAlign=middle;resizable=0;points=[];autosize=1;fontColor=#FFFFFF;rotation=2;fontSize=9;" vertex="1" parent="1">
          <mxGeometry x="220" y="420" width="40" height="20" as="geometry" />
        </mxCell>
        <mxCell id="jLQ3n-HPN2SgbX0vu5e_-37" value="" style="rounded=0;whiteSpace=wrap;html=1;fillColor=#660000;strokeColor=none;strokeWidth=5;" vertex="1" parent="1">
          <mxGeometry x="1160" y="330" width="160" height="60" as="geometry" />
        </mxCell>
        <mxCell id="jLQ3n-HPN2SgbX0vu5e_-38" value="RST" style="text;html=1;align=center;verticalAlign=middle;resizable=0;points=[];autosize=1;fontColor=#FF3333;rotation=90;fontSize=9;" vertex="1" parent="1">
          <mxGeometry x="1291" y="345" width="40" height="20" as="geometry" />
        </mxCell>
        <mxCell id="jLQ3n-HPN2SgbX0vu5e_-39" value="CE" style="text;html=1;align=center;verticalAlign=middle;resizable=0;points=[];autosize=1;fontColor=#FFFFFF;rotation=90;fontSize=9;" vertex="1" parent="1">
          <mxGeometry x="1277" y="345" width="30" height="20" as="geometry" />
        </mxCell>
        <mxCell id="jLQ3n-HPN2SgbX0vu5e_-40" value="DC" style="text;html=1;align=center;verticalAlign=middle;resizable=0;points=[];autosize=1;fontColor=#FFFFFF;rotation=90;fontSize=9;" vertex="1" parent="1">
          <mxGeometry x="1255" y="345" width="40" height="20" as="geometry" />
        </mxCell>
        <mxCell id="jLQ3n-HPN2SgbX0vu5e_-41" value="DIN" style="text;html=1;align=center;verticalAlign=middle;resizable=0;points=[];autosize=1;fontColor=#FFFFFF;rotation=90;fontSize=9;" vertex="1" parent="1">
          <mxGeometry x="1237" y="344" width="40" height="20" as="geometry" />
        </mxCell>
        <mxCell id="jLQ3n-HPN2SgbX0vu5e_-43" value="CLK" style="text;html=1;align=center;verticalAlign=middle;resizable=0;points=[];autosize=1;fontColor=#66FF66;rotation=90;fontSize=9;" vertex="1" parent="1">
          <mxGeometry x="1216" y="347" width="40" height="20" as="geometry" />
        </mxCell>
        <mxCell id="jLQ3n-HPN2SgbX0vu5e_-44" value="VCC" style="text;html=1;align=center;verticalAlign=middle;resizable=0;points=[];autosize=1;fontColor=#FF3333;rotation=90;fontSize=9;" vertex="1" parent="1">
          <mxGeometry x="1196" y="346" width="40" height="20" as="geometry" />
        </mxCell>
        <mxCell id="jLQ3n-HPN2SgbX0vu5e_-47" value="LIGHT" style="text;html=1;align=center;verticalAlign=middle;resizable=0;points=[];autosize=1;fontColor=#3399FF;rotation=90;fontSize=9;" vertex="1" parent="1">
          <mxGeometry x="1171" y="350" width="50" height="20" as="geometry" />
        </mxCell>
        <mxCell id="jLQ3n-HPN2SgbX0vu5e_-48" value="GND" style="text;html=1;align=center;verticalAlign=middle;resizable=0;points=[];autosize=1;fontColor=#3399FF;rotation=90;fontSize=9;" vertex="1" parent="1">
          <mxGeometry x="1158" y="347" width="40" height="20" as="geometry" />
        </mxCell>
        <mxCell id="jLQ3n-HPN2SgbX0vu5e_-49" value="D7" style="text;html=1;align=center;verticalAlign=middle;resizable=0;points=[];autosize=1;fontColor=#FFFFFF;rotation=90;fontSize=9;" vertex="1" parent="1">
          <mxGeometry x="1215" y="326" width="40" height="20" as="geometry" />
        </mxCell>
        <mxCell id="jLQ3n-HPN2SgbX0vu5e_-50" value="D3" style="text;html=1;align=center;verticalAlign=middle;resizable=0;points=[];autosize=1;fontColor=#FFFFFF;rotation=90;fontSize=9;" vertex="1" parent="1">
          <mxGeometry x="1291" y="326" width="40" height="20" as="geometry" />
        </mxCell>
        <mxCell id="jLQ3n-HPN2SgbX0vu5e_-51" value="D4" style="text;html=1;align=center;verticalAlign=middle;resizable=0;points=[];autosize=1;fontColor=#FFFFFF;rotation=90;fontSize=9;" vertex="1" parent="1">
          <mxGeometry x="1272" y="326" width="40" height="20" as="geometry" />
        </mxCell>
        <mxCell id="jLQ3n-HPN2SgbX0vu5e_-52" value="D5" style="text;html=1;align=center;verticalAlign=middle;resizable=0;points=[];autosize=1;fontColor=#FFFFFF;rotation=90;fontSize=9;" vertex="1" parent="1">
          <mxGeometry x="1255" y="326" width="40" height="20" as="geometry" />
        </mxCell>
        <mxCell id="jLQ3n-HPN2SgbX0vu5e_-53" value="D6" style="text;html=1;align=center;verticalAlign=middle;resizable=0;points=[];autosize=1;fontColor=#FFFFFF;rotation=90;fontSize=9;" vertex="1" parent="1">
          <mxGeometry x="1236" y="327" width="40" height="20" as="geometry" />
        </mxCell>
      </root>
    </mxGraphModel>
  </diagram>
</mxfile>
